<?xml version="1.0" standalone="no"?>
<!DOCTYPE svg PUBLIC "-//W3C//DTD SVG 20010904//EN"
 "http://www.w3.org/TR/2001/REC-SVG-20010904/DTD/svg10.dtd">
<svg version="1.0" xmlns="http://www.w3.org/2000/svg"
 width="1080.000000pt" height="1080.000000pt" viewBox="0 0 1080.000000 1080.000000"
 preserveAspectRatio="xMidYMid meet">
<metadata>
Created by potrace 1.16, written by Peter Selinger 2001-2019
</metadata>
<g transform="translate(0.000000,1080.000000) scale(0.100000,-0.100000)"
fill="#000000" stroke="none">
<path d="M5545 7813 c8 -3270 7 -3139 18 -3149 4 -4 7 6 8 22 l0 29 10 -25 c6
-15 13 -20 17 -13 4 6 24 14 45 18 30 6 37 4 37 -9 0 -10 -9 -16 -25 -16 -16
0 -25 -6 -25 -15 0 -8 5 -15 10 -15 6 0 10 -6 10 -14 0 -19 20 -32 29 -19 3 6
23 13 44 16 31 5 37 3 37 -11 0 -10 -14 -23 -32 -31 -29 -12 -30 -14 -12 -18
16 -3 20 -9 17 -23 -3 -12 1 -22 11 -26 9 -3 16 -15 16 -25 0 -14 7 -19 26
-19 20 0 25 4 20 16 -3 9 -6 18 -6 20 0 2 -9 4 -20 4 -15 0 -20 7 -20 25 0 27
9 32 27 14 16 -16 53 -1 53 21 0 43 109 62 146 25 9 -8 26 -15 40 -15 28 0 32
-16 7 -23 -10 -3 -3 -5 15 -6 26 -1 32 3 32 19 0 11 -6 20 -13 20 -7 0 -18 9
-25 20 -7 11 -19 20 -27 20 -9 0 -15 9 -15 21 0 21 4 21 76 17 57 -4 85 -1
108 10 46 23 48 33 14 59 -25 18 -28 24 -15 29 26 10 52 0 56 -21 2 -11 8 -23
15 -27 8 -5 4 -21 -13 -51 -32 -58 -25 -66 45 -54 39 6 63 6 80 -2 14 -6 45
-11 69 -11 l45 0 0 -39 c0 -22 5 -41 10 -43 11 -3 13 -22 8 -68 -4 -32 24 -38
51 -11 12 12 42 26 69 32 26 7 71 21 99 31 51 19 83 19 83 -1 0 -5 -27 -12
-60 -16 -33 -4 -60 -11 -60 -16 0 -11 59 -36 103 -44 40 -8 82 18 57 35 -8 5
-31 10 -50 11 l-35 1 30 10 c17 5 47 11 68 13 21 3 48 11 60 20 27 19 76 19
101 0 16 -12 23 -12 48 1 17 9 40 13 51 10 21 -5 52 7 75 31 23 23 52 16 52
-12 0 -33 23 -42 56 -20 28 18 65 17 72 -3 2 -6 -5 -12 -15 -12 -13 0 -15 -2
-5 -9 8 -5 15 -35 18 -75 2 -39 0 -65 -5 -61 -11 6 -36 -63 -27 -72 3 -4 6 1
6 10 0 9 5 17 10 17 6 0 10 -9 10 -20 0 -11 -5 -20 -11 -20 -6 0 -10 -18 -9
-42 3 -81 1 -92 -14 -79 -12 10 -13 8 -9 -11 4 -13 10 -26 15 -29 5 -3 2 -22
-7 -42 -9 -21 -15 -67 -15 -109 0 -40 -4 -80 -10 -88 -5 -8 -6 -17 -2 -20 14
-10 42 -115 32 -118 -6 -2 -10 -13 -10 -25 0 -17 2 -19 9 -8 16 26 22 -43 25
-314 3 -203 7 -273 20 -320 26 -94 45 -241 50 -377 2 -69 8 -134 14 -145 7
-13 9 -52 5 -105 -3 -51 -2 -92 4 -103 8 -13 5 -30 -9 -61 -14 -32 -18 -63
-17 -111 2 -38 -3 -102 -10 -143 -8 -41 -15 -102 -18 -135 -3 -33 -8 -63 -12
-67 -4 -4 -30 1 -58 12 -28 10 -75 22 -104 25 -30 4 -71 11 -91 16 -37 9 -38
11 -38 53 0 41 -2 45 -38 59 -37 15 -92 62 -92 79 0 12 -49 78 -75 100 -18 15
-47 31 -110 58 -28 12 -73 19 -204 31 -183 16 -226 24 -223 37 5 25 -18 53
-39 47 -14 -5 -19 -2 -19 14 0 11 -8 22 -18 25 -9 3 -23 16 -31 28 -12 20 -11
24 10 40 13 10 34 27 47 37 12 11 22 16 22 13 0 -4 7 1 15 12 10 13 21 17 39
12 30 -7 92 16 113 42 7 9 20 29 28 44 14 25 14 30 0 52 -15 22 -14 24 9 40
14 9 30 16 36 16 16 0 12 15 -8 33 -29 26 -73 30 -122 12 -25 -9 -55 -19 -67
-22 -13 -3 -23 -9 -23 -13 0 -9 -71 -30 -104 -30 -16 0 -26 -5 -26 -15 0 -21
-13 -19 -28 5 -6 11 -29 28 -50 39 -43 22 -108 16 -137 -13 -15 -15 -18 -15
-32 0 -10 9 -25 13 -37 10 -12 -3 -25 -6 -30 -6 -4 0 -6 -10 -3 -23 4 -12 2
-29 -3 -37 -8 -12 -10 -12 -16 3 -3 9 -4 24 -1 32 4 8 2 17 -3 20 -6 4 -10 -7
-10 -23 0 -39 -38 -82 -73 -82 -17 0 -27 -5 -27 -15 0 -8 5 -15 11 -15 6 0 25
-16 43 -35 31 -33 38 -35 95 -35 34 0 61 -4 61 -10 0 -5 7 -10 15 -10 8 0 15
-7 15 -15 0 -8 -7 -15 -15 -15 -11 0 -15 -12 -15 -46 0 -42 3 -47 30 -57 25
-9 30 -17 30 -44 0 -18 -5 -33 -11 -33 -6 0 -17 -6 -24 -14 -8 -7 -33 -16 -57
-20 -71 -11 -208 -56 -288 -94 -41 -20 -80 -35 -87 -34 -7 2 -15 -12 -18 -30
-3 -18 -5 -336 -3 -706 3 -648 4 -674 22 -687 10 -8 23 -12 27 -9 10 6 186
-53 213 -72 11 -8 33 -14 49 -14 15 0 42 -8 60 -17 45 -24 249 -98 409 -148
47 -15 126 -47 174 -71 49 -24 94 -44 102 -44 7 0 43 -20 80 -44 37 -24 128
-74 202 -111 74 -37 168 -89 208 -116 l72 -49 140 0 c138 0 140 0 140 23 1 29
45 163 65 193 28 44 192 104 282 104 40 0 133 49 133 71 0 10 4 20 10 24 5 3
14 32 21 65 10 53 14 60 35 60 12 0 26 -5 29 -10 7 -12 72 -42 129 -60 99 -32
123 -48 144 -97 27 -66 39 -105 58 -198 8 -44 25 -101 36 -127 20 -47 22 -48
64 -48 24 0 44 2 44 5 0 2 -8 19 -19 38 -14 24 -20 64 -25 148 -6 94 -21 231
-31 274 -16 72 -16 86 -4 101 9 11 9 18 2 22 -7 4 -11 38 -10 85 1 76 2 80 34
108 19 16 43 29 53 29 28 0 25 17 -5 24 -66 17 13 49 117 48 52 0 74 -5 89
-18 17 -15 24 -13 20 9 -1 4 11 12 25 17 21 9 29 6 45 -12 10 -13 17 -31 15
-40 -5 -20 22 -61 34 -53 5 3 7 12 3 20 -4 11 -1 13 11 9 23 -9 21 -61 -4 -74
-13 -7 -20 -21 -20 -38 0 -48 30 -153 61 -219 17 -35 31 -76 32 -91 1 -15 6
-30 11 -33 17 -13 56 -126 56 -164 0 -22 -11 -73 -25 -113 -14 -41 -25 -76
-25 -78 0 -2 239 -4 530 -4 l530 0 0 358 0 359 -24 11 c-13 6 -43 16 -66 22
-84 23 -92 27 -78 49 11 18 8 27 -20 66 -19 28 -35 64 -39 91 l-6 44 41 0 c32
0 42 4 47 20 10 31 -4 78 -31 107 -13 14 -24 32 -24 40 0 8 -14 42 -30 76 -28
55 -104 141 -153 172 -32 20 -103 71 -157 111 -30 23 -75 46 -100 52 -25 6
-74 18 -110 27 -36 9 -110 19 -165 23 l-100 7 4 55 c2 30 9 82 16 115 l12 60
36 -3 c45 -4 49 14 6 23 -37 8 -37 -1 11 229 30 145 31 151 20 265 -6 64 -11
123 -10 131 1 18 6 99 14 235 8 129 16 194 27 201 5 3 9 16 9 30 0 14 4 34 10
44 5 10 12 47 14 82 6 69 19 153 46 298 10 52 21 111 24 131 9 54 34 71 108
73 50 2 72 8 108 30 57 37 107 92 121 135 6 18 20 42 30 52 11 11 19 30 19 44
0 14 5 25 10 25 6 0 10 13 10 30 0 16 5 40 11 54 10 20 9 28 -5 42 -12 11 -15
24 -11 38 4 12 7 28 7 36 -1 8 -2 42 -3 75 -2 66 21 121 48 111 11 -4 12 4 7
39 -5 38 -3 44 10 39 12 -4 16 0 16 15 0 12 -4 21 -9 21 -15 0 0 40 24 66 16
17 25 20 33 12 8 -8 18 -9 35 -1 13 6 34 10 48 8 13 -1 16 0 7 2 -15 4 -15 8
-5 24 10 17 9 22 -5 30 -10 6 -15 18 -13 32 4 18 -2 25 -25 34 -24 9 -30 9
-30 -2 0 -8 5 -17 10 -20 8 -5 7 -11 -1 -21 -9 -11 -8 -14 5 -14 9 0 16 -4 16
-9 0 -18 -32 -34 -70 -35 l-39 -1 2 42 c1 24 6 41 12 40 5 -2 15 6 21 17 6 12
16 20 23 18 6 -1 17 9 23 23 12 27 23 32 32 13 3 -9 8 -8 16 5 6 9 18 17 26
17 8 0 13 4 9 10 -3 5 6 17 20 26 14 9 25 25 25 35 0 11 7 22 15 25 22 9 18
34 -5 34 -21 0 -24 8 -14 34 5 13 9 14 20 5 11 -9 14 -8 15 7 1 14 3 13 9 -6
6 -19 9 -9 10 40 l2 65 9 -44 c5 -24 11 -47 15 -50 3 -3 3 9 -1 28 -5 24 -3
36 6 42 12 7 14 225 17 1299 l2 1291 -28 -15 c-16 -8 -34 -22 -41 -30 -8 -9
-20 -16 -29 -16 -13 0 -14 15 -9 108 7 131 9 139 47 136 23 -2 31 4 40 26 7
16 9 34 4 41 -4 8 -3 10 4 5 9 -5 12 367 12 1513 l0 1521 -2226 0 -2226 0 7
-2987z m3076 1248 c20 -9 62 -38 93 -65 53 -46 56 -52 56 -95 0 -25 4 -63 9
-83 9 -39 -2 -51 -26 -27 -6 6 -53 13 -104 15 -71 4 -104 1 -136 -11 -51 -20
-53 -31 -17 -101 20 -39 36 -56 70 -72 45 -22 118 -29 128 -13 4 5 24 12 45
16 36 6 40 10 52 51 7 24 16 44 19 44 8 0 30 -78 43 -158 11 -62 14 -68 27
-53 9 9 15 35 15 65 0 56 12 66 37 31 13 -17 18 -44 19 -97 1 -106 -8 -147
-37 -154 -36 -9 -44 3 -44 67 0 61 -14 80 -23 32 -22 -110 -53 -158 -117 -180
-48 -17 -51 -16 -45 10 3 13 -3 35 -15 55 l-20 33 -30 -31 c-28 -28 -34 -30
-87 -26 -32 2 -66 5 -75 5 -31 2 -19 31 20 48 73 33 90 66 55 105 -19 21 -36
23 -64 6 -18 -12 -23 -9 -45 17 -18 22 -23 37 -18 55 4 14 9 63 11 109 4 80 3
84 -23 112 -15 15 -39 30 -53 33 -14 2 -44 8 -65 11 -22 4 -35 10 -30 13 13 9
54 109 54 131 0 10 -6 23 -12 30 -27 27 72 76 192 95 37 6 99 -4 141 -23z
m-83 -781 c7 0 12 -8 10 -17 -2 -14 5 -19 35 -21 48 -4 65 -30 66 -100 1 -62
-21 -91 -71 -93 -18 -1 -57 -3 -85 -5 -29 -2 -53 0 -53 5 0 11 55 53 96 74 31
16 45 40 37 64 -3 8 -14 8 -39 1 -19 -5 -51 -8 -71 -6 l-36 3 39 28 39 27 -45
1 c-55 1 -91 11 -91 24 1 11 102 24 136 19 11 -2 26 -4 33 -4z m268 -202 c0
-29 4 -98 9 -153 5 -55 9 -112 9 -127 1 -32 12 -35 37 -12 23 21 33 13 75 -52
19 -30 41 -54 49 -54 8 0 15 -7 15 -15 0 -10 10 -15 28 -15 16 0 37 -9 47 -20
10 -11 29 -20 43 -20 23 0 24 2 18 43 -12 86 -2 141 31 167 36 28 70 25 104
-10 26 -26 29 -34 23 -67 -7 -41 -18 -53 -49 -53 -54 -1 -62 -9 -67 -68 -4
-40 -1 -64 9 -79 9 -14 12 -30 7 -45 l-8 -23 -7 25 c-6 19 -8 14 -6 -20 2 -40
-1 -45 -20 -48 -13 -2 -23 1 -23 7 0 27 -17 7 -29 -35 -11 -35 -17 -44 -30
-39 -31 12 -35 10 -54 -30 l-19 -39 -19 23 c-13 16 -20 19 -23 10 -2 -8 -8
-30 -15 -50 -6 -19 -11 -45 -11 -57 0 -11 -4 -24 -10 -27 -5 -3 -10 -17 -10
-31 0 -30 -28 -44 -45 -21 -16 22 -39 5 -32 -24 3 -13 2 -28 -3 -33 -4 -6 -10
-31 -12 -56 -2 -35 0 -45 12 -45 8 0 15 9 16 20 1 11 4 27 8 35 4 9 5 27 4 40
-3 29 25 36 30 8 2 -10 -1 -18 -7 -18 -14 0 -15 -27 -1 -32 11 -4 -6 -143 -21
-171 -5 -10 -7 -22 -3 -28 3 -5 -1 -21 -10 -34 -9 -13 -17 -48 -18 -77 -1 -29
-6 -62 -12 -73 -6 -11 -11 -31 -12 -45 -1 -14 -8 -45 -14 -70 -6 -25 -14 -60
-17 -78 -3 -18 -9 -35 -14 -38 -5 -3 -9 -21 -9 -40 0 -24 -4 -34 -12 -31 -15
5 -12 105 4 124 5 7 7 21 3 33 -4 12 -2 26 3 33 11 14 22 77 22 124 0 17 4 34
10 38 5 3 10 19 10 34 0 15 5 32 10 37 13 13 2 46 -14 41 -6 -2 -13 -14 -14
-28 -2 -13 -10 -32 -18 -43 -7 -11 -11 -29 -8 -41 6 -24 -18 -51 -36 -40 -14
8 -13 45 1 45 8 0 10 12 6 35 -3 19 -2 35 4 35 5 0 9 15 9 34 0 18 7 39 16 47
10 8 13 21 9 37 -3 13 -1 30 5 37 6 7 7 20 4 29 -10 26 -37 -2 -30 -30 4 -13
2 -26 -4 -29 -5 -3 -10 -14 -10 -23 0 -9 -7 -30 -15 -46 -9 -16 -13 -37 -10
-47 3 -10 2 -26 -3 -36 -5 -10 -16 -33 -25 -51 -10 -19 -14 -44 -11 -57 3 -12
1 -26 -5 -29 -6 -4 -11 -22 -11 -41 0 -19 -5 -37 -10 -40 -6 -4 -8 -22 -4 -43
10 -62 15 -72 34 -72 10 0 21 -7 24 -16 7 -18 -17 -69 -36 -77 -10 -3 -13 -25
-11 -75 2 -74 16 -117 35 -106 12 7 29 -16 21 -28 -2 -5 -12 -6 -22 -3 -15 5
-17 -6 -14 -122 2 -159 6 -210 16 -220 12 -11 28 19 23 42 -6 25 8 50 22 41 6
-4 11 -23 12 -44 1 -69 2 -87 6 -111 5 -21 6 -22 22 -7 13 11 18 29 16 64 0
27 -4 55 -8 61 -10 16 3 73 15 65 6 -3 8 -12 5 -20 -3 -7 1 -35 8 -62 7 -27 9
-58 6 -68 -4 -10 -1 -28 6 -40 8 -11 11 -24 7 -28 -5 -4 -8 -40 -8 -79 0 -60
-3 -72 -17 -75 -19 -4 -19 0 -22 118 -1 47 -29 48 -36 2 -3 -18 -9 -33 -15
-32 -11 0 -16 30 -16 98 0 29 -5 45 -16 49 -22 9 -35 -18 -17 -38 19 -21 18
-32 -5 -46 -17 -11 -23 -9 -41 14 -11 14 -23 23 -26 20 -4 -4 -15 -2 -25 4
-13 6 -25 6 -38 -1 -25 -13 -81 -2 -81 16 0 18 48 37 77 31 13 -2 31 1 40 8
15 11 15 13 -5 24 -15 8 -28 8 -40 2 -22 -12 -72 -2 -72 14 0 16 34 28 80 29
24 1 35 6 35 16 0 12 -11 14 -56 12 -46 -3 -57 0 -63 14 -10 25 8 37 56 40 24
2 46 3 51 3 4 1 7 8 7 17 0 13 -8 15 -42 11 -24 -3 -52 -2 -62 2 -18 7 -18 8
4 29 16 15 31 19 50 15 30 -6 49 12 31 30 -8 8 -17 7 -35 -3 -44 -23 -88 17
-50 45 18 13 18 14 0 34 -18 20 -18 22 -1 41 14 15 21 17 31 9 8 -7 25 -8 41
-4 16 4 39 8 53 9 15 1 25 7 25 16 0 9 -8 14 -20 12 -78 -11 -135 -9 -146 4
-18 22 7 45 47 42 39 -2 64 16 47 33 -9 9 -20 9 -43 -1 -27 -11 -34 -11 -48 3
-23 24 -2 41 47 39 22 -2 42 2 46 8 4 7 12 7 26 0 32 -18 77 19 53 43 -3 3
-18 1 -32 -4 -15 -6 -53 -12 -85 -15 -45 -3 -59 -1 -63 11 -10 26 16 47 48 40
30 -7 62 10 52 26 -7 12 -54 11 -54 -1 0 -14 -11 -12 -35 6 -17 12 -18 17 -7
35 11 18 11 24 -2 38 -20 22 -21 51 -1 51 8 0 15 4 15 9 0 5 -7 14 -15 21 -32
27 0 69 37 49 10 -6 23 -7 29 -3 17 10 -6 27 -37 28 -27 1 -58 35 -39 42 6 3
16 8 24 13 21 13 -2 39 -37 43 -21 2 -27 8 -27 28 0 15 -6 26 -17 28 -14 3
-16 -4 -13 -42 2 -25 9 -54 15 -66 6 -11 8 -25 4 -31 -10 -17 0 -342 12 -360
2 -4 0 -18 -5 -32 -5 -14 -7 -28 -3 -32 4 -4 8 -40 8 -80 1 -40 5 -78 9 -84 4
-7 8 -112 10 -234 1 -122 4 -226 5 -232 2 -5 0 -18 -4 -27 -4 -9 -2 -26 4 -38
7 -13 8 -26 2 -33 -8 -11 -8 -83 2 -239 2 -31 0 -62 -5 -69 -4 -7 -3 -21 2
-32 6 -10 7 -26 3 -35 -4 -9 -8 -27 -8 -39 -1 -13 -5 -22 -11 -20 -5 1 -9 12
-7 24 1 12 -2 24 -8 28 -6 4 -8 20 -4 40 3 19 1 35 -5 39 -6 4 -8 18 -5 32 3
13 1 31 -6 39 -6 8 -8 20 -4 27 11 17 14 277 3 284 -5 2 -3 16 3 29 6 13 7 32
3 42 -5 10 -7 22 -6 28 2 5 2 17 2 25 -1 8 -3 87 -4 175 -2 135 -4 160 -17
160 -12 0 -15 -14 -17 -62 -1 -35 2 -65 8 -68 5 -4 6 -12 2 -18 -11 -18 -13
-126 -2 -132 5 -4 5 -13 0 -23 -5 -9 -7 -44 -5 -77 5 -71 5 -65 0 -135 -2 -30
1 -63 6 -73 6 -12 5 -23 -3 -33 -10 -12 -10 -20 -1 -35 9 -14 10 -25 2 -39 -6
-11 -7 -26 -3 -33 11 -17 11 -110 0 -125 -7 -8 -13 -9 -22 -2 -8 7 -11 43 -10
119 2 60 -1 115 -6 122 -5 8 -2 20 8 31 13 14 13 20 3 33 -7 8 -10 25 -6 40 4
14 2 35 -4 46 -8 14 -8 24 -1 33 7 8 7 34 1 76 -5 35 -6 70 -1 79 4 9 6 39 4
66 -2 28 -5 82 -6 120 -2 39 -6 78 -11 87 -4 9 -3 25 3 35 6 12 6 25 0 34 -5
7 -6 26 -3 41 3 15 1 35 -5 46 -7 13 -7 22 0 29 7 7 8 17 1 29 -5 11 -8 70 -7
132 2 114 -5 137 -32 109 -12 -11 -13 -19 -4 -36 9 -15 9 -27 1 -42 -9 -15 -8
-24 1 -35 9 -11 9 -20 0 -40 -8 -18 -8 -30 -1 -39 5 -7 7 -26 4 -42 -3 -17 -2
-33 3 -36 4 -3 8 -36 7 -74 -1 -37 3 -76 8 -86 6 -11 6 -23 0 -30 -12 -17 -8
-97 6 -124 7 -13 8 -24 3 -27 -5 -4 -7 -34 -5 -69 3 -34 4 -68 4 -74 -1 -11
-1 -79 -1 -150 0 -10 -1 -40 -2 -68 -2 -27 1 -58 6 -68 5 -12 4 -24 -4 -33 -9
-11 -9 -21 -2 -37 7 -16 8 -29 1 -41 -5 -9 -6 -25 -2 -34 10 -26 12 -105 2
-125 -6 -12 -5 -23 3 -33 9 -11 9 -17 -1 -28 -18 -23 -38 -8 -39 27 0 18 0 59
-1 92 0 33 -1 67 0 75 1 54 -7 177 -12 185 -3 6 -2 19 2 30 4 11 3 30 -3 43
-7 16 -7 26 1 34 7 7 7 19 1 35 -7 18 -6 30 3 40 9 11 9 19 0 34 -8 12 -9 26
-4 37 4 9 7 40 5 67 -1 28 -4 86 -7 130 -2 44 -4 80 -6 80 -1 0 -4 34 -6 75
-1 41 -5 100 -7 130 -2 30 0 60 4 66 5 6 2 19 -6 30 -12 15 -16 16 -23 6 -9
-13 -9 -104 -1 -127 1 -5 -1 -20 -5 -33 -5 -14 -3 -28 4 -37 8 -10 8 -19 0
-34 -7 -13 -7 -28 -2 -38 5 -10 8 -47 7 -83 -1 -36 2 -71 8 -78 7 -9 6 -20 -3
-36 -7 -15 -9 -29 -4 -38 5 -7 10 -26 11 -43 6 -81 5 -132 -1 -153 -5 -13 -3
-29 4 -37 7 -8 8 -21 3 -32 -5 -10 -8 -40 -6 -68 1 -27 2 -59 2 -70 0 -11 0
-35 0 -54 0 -19 -4 -42 -10 -52 -6 -12 -5 -20 2 -25 6 -4 9 -19 5 -37 -3 -16
-2 -35 4 -42 6 -8 5 -18 -4 -30 -19 -26 -39 -10 -31 26 4 18 2 36 -5 44 -10
12 -10 18 -1 29 8 9 10 28 6 49 -4 22 -3 37 5 42 8 5 8 10 -1 21 -6 8 -9 27
-6 44 4 19 1 34 -8 44 -10 9 -11 17 -5 21 14 8 13 52 -1 61 -6 3 -14 2 -18 -4
-7 -11 -7 -541 0 -577 3 -13 -1 -20 -11 -20 -10 0 -14 9 -13 29 1 17 -3 36 -9
43 -7 9 -7 17 2 28 9 11 9 19 -4 36 -11 16 -12 27 -5 41 5 10 7 23 3 29 -11
19 -13 113 -2 126 6 7 8 20 4 29 -3 8 -1 25 5 36 8 15 8 26 -1 44 -7 12 -10
29 -7 37 3 8 0 23 -8 33 -8 11 -10 26 -5 39 9 25 3 45 -15 45 -18 0 -27 -28
-15 -49 6 -13 5 -24 -3 -36 -12 -15 -14 -15 -26 -1 -7 9 -11 26 -8 38 7 28 -6
53 -23 43 -8 -5 -10 -20 -7 -40 3 -18 0 -38 -6 -44 -7 -7 -7 -18 1 -36 13 -27
8 -50 -9 -40 -5 4 -9 19 -9 34 0 15 -5 32 -10 37 -17 17 -31 500 -16 559 8 30
33 29 28 -1 -2 -10 -3 -26 -3 -34 0 -8 3 -69 6 -135 3 -66 5 -137 5 -157 0
-20 4 -39 10 -43 7 -4 7 -12 0 -25 -13 -24 -2 -52 19 -48 12 3 16 16 17 58 1
30 -2 62 -7 71 -6 11 -4 21 6 29 14 11 14 15 0 30 -11 12 -14 26 -9 44 4 16 1
32 -6 41 -10 12 -9 20 3 39 14 21 14 25 0 38 -12 13 -13 20 -3 37 9 17 9 26
-1 37 -9 11 -9 21 0 40 7 17 8 31 1 44 -10 19 -4 50 10 50 4 0 13 -6 19 -14
10 -11 10 -20 1 -37 -10 -17 -9 -24 5 -38 15 -15 17 -15 30 3 9 12 11 25 6 35
-5 9 -6 30 -4 47 3 18 0 35 -6 38 -7 5 -7 14 1 32 9 19 9 30 1 43 -7 11 -8 23
-1 34 5 10 6 23 2 29 -5 7 -7 46 -6 87 1 41 -3 80 -9 87 -6 7 -10 39 -11 72
-1 69 -11 93 -29 75 -7 -7 -9 -22 -4 -40 5 -15 7 -32 5 -38 -1 -5 -2 -27 -1
-48 1 -48 -20 -46 -30 2 -4 18 -12 38 -18 44 -7 7 -7 14 1 25 9 10 9 18 0 33
-7 11 -10 30 -6 44 3 13 2 30 -2 37 -4 7 -7 27 -5 45 2 24 -2 35 -14 39 -20 8
-38 -14 -29 -36 19 -45 34 -166 35 -273 0 -16 6 -38 14 -50 18 -29 30 -113 17
-121 -15 -9 -35 21 -29 43 3 11 -2 29 -10 41 -8 11 -12 28 -9 37 4 8 1 22 -5
30 -7 8 -14 26 -16 41 -8 69 -15 108 -21 122 -3 8 -7 29 -8 45 -2 17 -5 46 -9
65 -9 61 -15 104 -21 145 -3 22 -8 47 -11 55 -5 16 -14 123 -14 180 0 19 -4
39 -8 45 -5 5 -11 24 -14 42 -7 36 10 56 45 52 13 -1 31 1 41 6 22 9 45 -9 49
-41 5 -38 23 -33 26 6 2 19 7 39 12 44 12 12 43 -61 44 -103 1 -19 7 -36 13
-38 18 -6 28 26 15 47 -8 14 -8 21 3 30 11 9 16 7 24 -9 6 -11 11 -27 11 -35
0 -22 31 -36 52 -25 14 8 20 6 24 -8 3 -10 12 -32 20 -49 9 -17 15 -37 14 -45
-4 -26 0 -39 11 -39 6 0 9 14 7 32 -4 44 28 53 37 11 4 -15 11 -38 17 -50 6
-11 7 -26 3 -32 -4 -7 -1 -18 5 -27 10 -11 16 -12 26 -3 9 7 11 16 5 23 -13
16 -18 110 -6 116 6 3 15 -8 20 -25 16 -47 24 -55 56 -55 26 0 29 -3 24 -21
-4 -13 -1 -27 10 -39 18 -20 28 -67 27 -122 -1 -31 2 -38 18 -38 10 0 22 5 25
10 4 7 14 5 27 -5 12 -8 31 -12 43 -9 25 6 75 -11 75 -26 0 -5 -13 -10 -30
-10 -36 0 -40 -22 -7 -45 l22 -16 -23 -17 -23 -18 21 -19 c20 -18 20 -20 5
-31 -20 -15 -12 -34 14 -34 14 0 21 11 27 38 4 20 6 45 5 54 -1 10 5 28 13 39
11 17 12 27 5 42 -8 13 -8 22 0 30 6 6 11 20 11 32 0 12 6 27 12 33 7 7 13 32
15 55 1 23 2 51 3 62 0 10 6 25 12 33 14 16 -5 37 -44 46 -37 8 -45 -10 -11
-26 39 -18 36 -42 -4 -46 -37 -4 -42 -16 -13 -32 25 -13 26 -30 3 -30 -10 0
-25 -4 -32 -9 -12 -8 -11 -13 10 -30 20 -17 22 -22 9 -30 -25 -17 -143 -6
-155 13 -8 14 -5 21 13 36 23 19 23 19 2 30 -12 7 -20 21 -20 37 0 20 3 24 11
16 19 -19 40 -4 28 19 -8 14 -7 25 5 42 8 13 12 33 9 45 -3 12 0 27 6 35 8 10
9 16 1 21 -5 3 -13 -1 -17 -10 -4 -13 -13 -15 -37 -11 -54 11 -106 40 -101 56
3 9 -12 29 -36 50 -83 71 -116 106 -123 133 -7 28 -5 30 43 31 30 1 37 19 16
39 -8 9 -15 20 -15 26 0 6 -7 8 -15 5 -10 -4 -15 0 -15 11 0 13 6 15 31 10 22
-5 29 -4 25 4 -4 6 -2 11 3 11 6 0 11 -12 12 -27 0 -26 1 -26 9 -7 5 12 24 31
42 42 19 12 48 36 64 54 18 20 49 39 75 47 24 7 65 22 91 32 26 11 49 19 52
19 3 0 6 -17 6 -39 0 -29 6 -43 23 -54 l22 -16 -27 0 c-18 -1 -28 -6 -28 -16
0 -20 37 -38 67 -32 13 2 42 -4 63 -14 48 -23 46 -23 53 2 8 29 31 19 35 -14
4 -30 4 -30 26 -21 20 8 11 51 -15 77 -25 24 -24 40 6 75 29 35 31 42 9 42
-19 0 -54 37 -54 57 0 8 -7 13 -17 11 -12 -2 -17 -11 -15 -26 3 -17 -2 -22
-18 -22 -12 0 -31 5 -43 11 l-21 12 23 8 c12 5 19 13 16 19 -3 5 -1 10 5 10 6
0 3 11 -7 24 -20 28 -63 43 -73 26 -6 -9 -60 -5 -60 5 0 9 41 117 51 135 8 14
38 49 67 79 29 30 55 66 58 80 4 14 13 36 20 49 8 12 12 22 9 22 -3 0 -1 9 5
20 6 11 12 20 13 20 1 0 2 -24 3 -52z m-1286 -608 c5 0 7 7 4 15 -7 18 0 19
27 5 10 -6 19 -21 18 -33 0 -12 4 -40 8 -62 5 -22 6 -53 2 -70 -4 -16 -7 -24
-8 -17 -1 8 -18 12 -50 12 -57 0 -61 6 -61 90 0 49 3 60 23 73 18 12 23 12 25
1 2 -8 7 -14 12 -14z m-165 -30 c4 -6 15 -8 24 -5 15 5 19 -2 25 -41 3 -25 3
-50 0 -55 -10 -17 -25 3 -22 29 2 19 -2 28 -14 30 -15 3 -17 -3 -13 -39 4 -44
24 -75 32 -51 7 20 23 14 23 -9 0 -15 -5 -19 -15 -15 -9 3 -19 -3 -26 -16 -9
-17 -8 -23 5 -30 9 -5 16 -19 16 -30 0 -26 17 -83 36 -121 8 -16 14 -37 14
-48 0 -10 5 -19 10 -19 6 0 10 -12 10 -26 0 -30 -23 -28 -28 2 -2 10 -9 24
-16 29 -15 11 -16 15 -16 50 0 33 -17 32 -47 -2 -42 -49 -45 -106 -5 -111 26
-4 29 -24 6 -47 -11 -11 -14 -26 -11 -53 14 -89 14 -87 -17 -90 -24 -3 -28 -1
-21 15 4 10 10 48 12 85 5 57 3 69 -11 74 -10 4 -25 -1 -36 -11 -19 -18 -20
-17 -20 8 0 15 5 27 10 27 6 0 10 6 10 14 0 8 5 16 12 18 7 3 13 17 13 31 1
15 10 33 20 41 24 18 13 50 -15 43 -14 -3 -24 1 -31 14 -11 21 -4 59 11 59 5
0 16 14 24 32 18 34 22 64 5 36 -5 -10 -17 -18 -24 -18 -22 0 -18 38 5 50 25
14 26 40 1 47 -28 7 -21 41 14 80 33 35 40 39 50 23z m310 -442 c0 -48 4 -73
12 -75 18 -6 28 26 15 47 -8 13 -7 23 5 39 11 16 12 25 4 35 -8 9 -7 18 3 31
15 21 32 5 22 -21 -3 -8 -1 -48 4 -88 6 -40 12 -116 13 -169 1 -53 6 -99 9
-103 4 -4 3 -15 -3 -26 -16 -29 -43 -3 -35 34 3 15 2 29 -3 32 -4 3 -8 37 -9
77 -1 76 -11 100 -31 75 -9 -11 -10 -20 -1 -36 11 -20 6 -40 -9 -40 -8 0 -14
26 -27 110 -7 45 -5 150 2 162 15 24 29 -19 29 -84z m-581 -394 c3 -9 6 -31 6
-49 0 -21 6 -38 17 -43 10 -6 14 -16 10 -26 -4 -10 -11 -14 -17 -11 -13 8 -13
-10 -1 -33 5 -9 12 -25 15 -36 5 -15 9 -16 21 -6 20 17 38 4 25 -20 -5 -10
-10 -26 -10 -36 0 -9 -8 -23 -17 -30 -17 -12 -17 -14 4 -29 43 -30 53 -47 53
-86 0 -21 -4 -39 -10 -39 -5 0 -10 -11 -10 -24 0 -13 -7 -29 -15 -36 -11 -9
-12 -17 -4 -32 15 -28 -12 -58 -35 -38 -20 15 -20 25 -2 43 8 7 15 25 15 38 1
13 4 52 7 87 6 62 5 64 -18 60 -21 -3 -23 1 -29 52 -4 35 -2 60 6 70 16 21 7
52 -13 48 -13 -2 -19 -21 -27 -75 -5 -39 -13 -75 -17 -78 -4 -4 -2 -18 4 -31
8 -17 8 -27 -1 -38 -7 -8 -10 -23 -7 -34 3 -10 -1 -27 -9 -38 -14 -19 -20 -54
-9 -54 3 0 14 5 25 10 15 8 23 7 34 -4 21 -20 19 -33 -7 -42 -14 -4 -25 -1
-33 10 -20 26 -45 9 -45 -31 0 -23 -4 -33 -12 -30 -15 4 -19 96 -5 114 13 18
3 38 -19 38 -13 0 -19 7 -19 24 0 31 25 40 32 12 3 -12 7 -21 10 -21 18 0 32
39 43 125 7 55 15 105 19 110 3 6 6 39 7 75 1 129 3 150 18 150 8 0 17 -7 20
-16z m51 -854 c17 -19 19 -19 31 -2 16 21 27 11 44 -41 6 -20 16 -35 21 -32
13 9 11 49 -3 63 -9 9 -9 15 -1 23 16 16 33 2 33 -27 0 -14 7 -36 16 -49 9
-14 14 -34 11 -46 -3 -13 0 -22 10 -26 9 -3 13 -13 10 -25 -3 -11 0 -22 9 -25
8 -3 14 -11 14 -18 0 -8 6 -20 13 -27 8 -7 16 -20 18 -27 3 -8 20 -19 39 -25
28 -9 36 -18 42 -46 4 -19 12 -57 17 -84 6 -27 7 -55 2 -63 -9 -16 -7 -28 11
-100 8 -31 7 -47 -1 -56 -17 -21 58 -163 85 -160 10 1 26 0 34 -4 8 -3 31 -7
50 -8 82 -4 90 -5 90 -20 0 -17 -36 -21 -42 -4 -2 7 -9 5 -17 -5 -12 -14 -11
-16 7 -16 11 0 22 -5 24 -12 2 -6 15 -1 30 15 26 26 68 28 68 4 0 -7 4 -7 12
1 13 13 38 -2 38 -24 0 -21 -41 -39 -51 -23 -4 7 -5 17 -3 21 3 4 -2 8 -10 8
-23 0 -68 -77 -61 -101 5 -13 12 -18 24 -14 11 3 24 -2 32 -11 11 -14 11 -18
-5 -29 -10 -8 -15 -18 -12 -24 9 -14 38 -1 32 15 -3 7 7 17 26 23 23 8 29 15
25 30 -3 11 1 22 9 25 20 8 28 -12 13 -31 -8 -8 -12 -28 -11 -44 2 -16 -1 -29
-7 -29 -6 0 -11 -7 -11 -15 0 -9 6 -12 15 -9 8 4 15 13 15 20 0 22 42 35 56
18 22 -27 64 -9 64 27 0 10 5 21 11 25 17 10 30 -18 16 -34 -6 -8 -10 -27 -9
-42 2 -18 -2 -30 -12 -33 -18 -7 -22 -37 -6 -37 6 0 13 8 17 18 3 9 14 26 25
37 10 11 26 31 37 44 22 29 35 14 17 -20 -7 -13 -11 -30 -8 -37 2 -6 -4 -19
-12 -28 -20 -20 -21 -45 -1 -38 8 4 15 15 15 25 0 10 9 24 20 31 11 7 20 23
20 35 0 12 9 27 20 33 11 6 20 19 20 30 0 22 15 34 31 25 7 -5 4 -14 -7 -27
-14 -15 -16 -23 -7 -36 15 -25 36 -21 51 11 15 32 48 38 38 7 -3 -11 -9 -29
-12 -41 -6 -17 -3 -20 12 -17 12 2 20 13 22 31 2 15 12 31 22 37 10 5 20 20
22 32 4 30 38 37 38 9 0 -11 -4 -23 -10 -26 -5 -3 -10 -15 -10 -25 0 -10 -8
-32 -17 -49 -10 -16 -14 -33 -10 -38 13 -12 42 12 45 38 2 13 10 31 18 40 8 9
12 23 9 31 -7 17 19 43 35 33 15 -9 12 -31 -6 -46 -9 -7 -13 -21 -10 -33 3
-11 -2 -28 -11 -38 -20 -22 -10 -56 12 -38 7 6 15 21 17 33 2 14 10 22 23 22
15 0 19 -5 16 -20 -2 -11 -3 -33 -3 -50 -1 -18 -8 -35 -19 -43 -11 -7 -19 -22
-19 -32 0 -10 -7 -25 -15 -34 -8 -8 -15 -24 -15 -35 0 -12 6 -21 15 -21 8 0
15 -5 15 -11 0 -6 -8 -9 -19 -6 -30 8 -54 -12 -47 -39 5 -17 2 -26 -9 -30 -8
-4 -15 -18 -15 -33 0 -15 -8 -31 -20 -39 -11 -7 -20 -23 -20 -36 0 -14 -4 -28
-10 -31 -18 -11 -12 -46 7 -43 10 2 19 -5 21 -15 3 -16 -1 -17 -35 -11 -54 9
-132 35 -139 45 -3 5 -16 9 -28 9 -13 0 -29 7 -36 15 -7 8 -23 15 -35 15 -12
0 -28 7 -35 15 -7 8 -21 15 -31 15 -11 0 -28 9 -39 20 -11 11 -28 20 -39 20
-10 0 -24 7 -31 15 -7 8 -23 15 -35 15 -32 0 -46 22 -39 60 6 25 4 32 -7 28
-8 -2 -15 -14 -17 -26 -7 -45 -38 -16 -33 30 2 20 -2 28 -13 28 -8 0 -18 -4
-21 -10 -12 -20 -33 -9 -37 20 -3 21 1 35 14 47 29 26 23 47 -11 40 -24 -5
-31 -2 -36 14 -4 13 -1 27 9 38 9 10 16 29 16 42 0 13 9 30 20 37 21 13 28 46
8 40 -7 -3 -19 -18 -28 -34 -32 -57 -72 -31 -43 29 16 32 10 47 -18 47 -10 0
-19 5 -19 11 0 16 21 52 43 73 15 15 17 21 7 24 -7 3 -17 -3 -22 -12 -5 -9
-18 -16 -28 -16 -24 0 -24 -2 -4 -156 14 -112 14 -124 -1 -160 l-16 -39 -15
40 c-9 22 -18 48 -21 59 -8 26 -44 94 -76 143 -15 24 -27 48 -27 55 0 7 -9 28
-20 46 -11 18 -20 37 -20 43 0 6 -9 22 -20 36 -11 14 -20 34 -20 45 0 11 -11
23 -26 28 -17 7 -24 15 -20 25 3 8 8 21 11 28 3 7 -8 20 -25 30 -20 12 -30 26
-30 41 0 13 -6 29 -14 35 -7 6 -16 25 -20 42 -3 18 -11 29 -18 27 -20 -7 -22
-40 -4 -50 9 -5 16 -22 16 -38 0 -20 6 -31 21 -35 13 -4 18 -12 15 -22 -3 -8
-6 -19 -6 -24 0 -20 -21 -7 -32 19 -32 80 -49 112 -58 112 -6 0 -10 11 -10 24
0 13 -7 29 -15 36 -8 7 -15 23 -15 36 0 13 -9 28 -20 34 -17 9 -18 14 -9 31 8
16 13 18 24 9 8 -6 12 -17 9 -24 -3 -7 4 -21 16 -31 11 -10 20 -26 20 -36 0
-19 35 -45 43 -32 6 11 -9 49 -22 58 -6 3 -11 15 -11 26 0 31 -34 57 -74 57
-24 0 -36 -5 -36 -14 0 -8 -5 -14 -10 -14 -7 0 -7 7 1 21 8 15 8 24 0 32 -6 6
-11 23 -11 38 0 15 -5 29 -12 31 -14 5 -4 38 12 38 5 0 10 -11 10 -25 0 -14 7
-28 16 -32 9 -3 14 -13 11 -24 -7 -25 8 -33 35 -18 20 11 20 13 5 24 -9 7 -17
22 -17 34 0 12 -7 24 -16 28 -11 4 -13 13 -9 33 3 16 2 37 -3 47 -5 10 -14 28
-21 41 -7 13 -9 32 -6 42 3 10 2 21 -4 24 -14 9 -1 46 16 46 12 0 14 -7 10
-29 -5 -21 -2 -31 10 -35 9 -4 13 -14 10 -26 -3 -10 2 -25 10 -31 8 -7 12 -21
10 -30 -5 -19 19 -47 29 -36 4 3 3 19 -2 34 -13 47 -20 85 -27 161 -5 47 8 55
38 22z m1736 -96 c3 -21 7 -43 9 -49 2 -5 0 -18 -4 -27 -9 -20 -1 -48 13 -48
5 0 13 9 16 21 11 33 30 16 33 -32 2 -24 8 -49 14 -56 7 -9 7 -17 -2 -28 -7
-8 -10 -26 -8 -40 5 -26 -14 -51 -31 -41 -5 3 -7 36 -6 73 4 78 -7 103 -36 77
-16 -14 -18 -14 -29 6 -7 13 -8 26 -2 33 10 14 10 97 -1 114 -10 15 2 45 17
40 6 -2 14 -21 17 -43z m-202 -172 c0 -1 9 2 19 7 26 14 42 -4 42 -46 0 -35 8
-41 28 -21 19 19 44 -10 37 -43 -4 -16 -3 -34 2 -41 4 -7 8 -25 8 -40 0 -15 5
-28 10 -28 6 0 10 15 10 33 0 22 5 32 15 32 11 0 14 -9 13 -31 -3 -39 19 -63
42 -44 24 20 29 6 29 -78 1 -63 4 -76 16 -73 40 9 45 6 46 -29 1 -93 4 -112
17 -107 7 2 11 16 9 36 -3 27 -1 32 15 29 13 -2 18 -12 18 -33 0 -17 4 -36 8
-42 4 -7 3 -21 -2 -31 -7 -14 -6 -24 3 -37 13 -18 14 -18 25 4 10 17 10 26 1
37 -10 11 -9 15 3 20 22 8 41 -5 29 -19 -12 -14 -10 -97 2 -115 12 -19 29 0
30 34 1 15 6 29 13 31 8 3 11 -24 8 -100 -3 -104 4 -143 21 -116 4 8 8 27 9
43 0 16 5 31 11 33 12 4 13 -94 1 -114 -4 -6 0 -16 8 -23 12 -10 16 -9 21 4 3
8 4 21 1 28 -2 7 2 20 9 29 8 9 15 41 17 72 1 31 5 57 8 57 11 0 18 -85 8 -95
-5 -5 -9 -21 -9 -36 0 -15 -4 -30 -8 -33 -8 -5 -9 -75 -2 -101 6 -24 -2 -33
-32 -31 -25 1 -33 7 -34 21 -1 11 -2 26 -3 33 -1 6 -6 12 -12 12 -6 0 -8 -11
-4 -28 4 -20 1 -33 -10 -42 -9 -7 -13 -21 -10 -31 4 -10 2 -27 -4 -37 -13 -25
6 -47 27 -30 10 9 16 8 22 -2 5 -8 5 -19 0 -25 -9 -11 -13 -89 -8 -135 2 -20
-2 -26 -20 -28 -13 -2 -26 -10 -29 -18 -8 -21 -30 -17 -36 7 -3 12 -10 18 -16
14 -6 -3 -8 -17 -5 -31 6 -21 3 -24 -24 -24 -17 0 -34 -4 -37 -10 -3 -5 -15
-10 -27 -10 -18 0 -19 4 -14 34 7 37 -7 57 -27 37 -7 -7 -7 -17 1 -35 14 -31
-7 -53 -35 -37 -13 7 -22 6 -35 -6 -13 -11 -21 -12 -38 -3 -15 8 -25 8 -34 1
-10 -8 -17 -7 -26 4 -11 13 -11 20 0 41 10 18 11 27 3 35 -19 19 -35 -1 -29
-35 5 -25 2 -37 -12 -50 -17 -15 -21 -15 -32 -1 -7 9 -21 13 -35 9 -30 -7 -39
19 -14 42 11 10 17 25 14 34 -3 11 1 20 10 24 13 5 15 0 10 -28 -8 -41 12 -59
20 -19 4 15 11 38 17 50 6 12 8 29 4 39 -6 16 -7 16 -19 0 -12 -16 -14 -16
-26 -2 -9 10 -18 13 -25 7 -6 -4 -44 -11 -83 -15 -61 -5 -73 -4 -73 9 0 8 10
17 23 19 12 2 46 9 76 15 37 8 57 8 66 1 9 -8 14 -6 19 6 5 12 10 13 19 6 17
-15 39 1 31 22 -5 13 -9 14 -21 4 -11 -9 -16 -9 -24 3 -8 12 -11 12 -22 -1 -7
-10 -31 -16 -62 -18 -111 -3 -111 -3 -102 22 4 9 19 18 34 21 15 4 47 12 71
18 42 11 42 12 15 19 -15 4 -45 5 -65 1 -41 -6 -47 0 -23 24 10 9 25 13 39 9
15 -4 28 0 36 9 7 8 20 15 29 16 9 1 5 4 -9 9 -14 4 -44 5 -67 2 -38 -4 -43
-2 -43 16 0 19 32 39 53 34 5 -2 25 3 44 10 33 12 34 13 12 19 -13 4 -40 4
-60 2 -23 -3 -39 -1 -44 7 -10 17 21 35 60 35 20 0 31 5 33 18 3 16 -2 17 -47
11 -42 -5 -52 -4 -57 10 -10 25 9 39 53 40 26 1 38 6 38 15 0 11 -17 15 -73
17 -40 1 -76 5 -79 8 -15 15 22 30 77 32 65 1 80 8 62 26 -8 8 -19 8 -34 2
-55 -23 -101 14 -58 46 l23 17 -29 14 c-50 24 -37 34 61 44 47 5 75 18 64 30
-6 5 -52 6 -114 3 -30 -2 -40 1 -40 12 0 10 16 18 50 24 28 4 63 14 78 21 l29
12 -29 6 c-15 3 -49 3 -75 0 -40 -5 -48 -3 -48 11 0 9 5 17 10 17 10 2 25 5
38 9 4 1 17 1 30 0 26 -2 55 17 46 31 -7 11 -51 12 -58 1 -6 -9 -76 -3 -76 7
1 21 24 34 71 39 41 5 55 11 57 25 3 17 -2 18 -57 11 -49 -5 -61 -4 -61 8 0
16 60 41 81 33 19 -7 43 10 35 24 -8 13 -114 4 -133 -12 -9 -6 -13 -6 -13 2 0
6 5 11 10 11 13 0 13 33 1 46 -15 15 0 64 23 76 11 7 37 12 56 12 26 1 36 6
38 20 3 16 0 18 -25 12 -15 -4 -45 -9 -65 -11 -35 -4 -38 -2 -38 20 0 18 6 25
18 25 10 0 21 3 25 6 11 11 -5 34 -24 34 -10 0 -19 6 -19 14 0 16 30 26 77 26
35 0 51 16 34 33 -7 7 -17 7 -35 -1 -30 -13 -80 -2 -84 20 -3 17 45 33 86 29
13 -1 30 3 37 9 8 7 19 9 25 5 5 -3 10 1 10 9 0 8 8 16 18 18 14 3 19 -9 28
-72 6 -41 12 -76 13 -78z m479 -137 c2 -2 -3 -13 -10 -24 -11 -18 -11 -23 1
-30 8 -5 20 -7 28 -4 9 4 13 -6 13 -35 0 -23 4 -43 10 -47 15 -9 0 -35 -21
-35 -10 0 -19 -7 -19 -15 0 -18 26 -20 36 -4 5 8 10 6 16 -5 10 -18 -5 -46
-25 -46 -5 0 -20 -12 -33 -26 -28 -30 -48 -23 -41 15 3 14 1 34 -4 43 -6 11
-5 31 4 56 7 21 12 43 9 50 -6 20 -22 14 -22 -9 0 -11 -7 -27 -15 -36 -11 -11
-13 -19 -5 -28 7 -9 6 -16 -5 -25 -22 -18 -29 -7 -31 48 -2 63 5 92 23 92 11
0 13 7 8 29 -5 22 -2 32 12 40 15 8 59 6 71 -4z m308 -981 c0 -16 8 -63 17
-104 28 -129 66 -358 61 -377 -3 -10 -16 -23 -29 -29 -21 -10 -24 -9 -27 10
-4 29 -29 26 -47 -6 -13 -22 -13 -30 -3 -40 9 -9 15 -9 24 0 40 40 33 -29 -9
-89 -18 -25 -36 -39 -50 -39 -13 0 -23 -5 -23 -11 0 -6 -14 -9 -32 -7 -29 3
-33 7 -36 37 -2 19 4 54 13 77 13 35 15 64 11 145 -4 56 -9 105 -12 110 -7 13
-44 11 -44 -2 0 -5 -9 -29 -20 -53 -10 -23 -29 -81 -41 -127 -11 -46 -30 -98
-40 -115 -24 -40 -24 -44 4 -44 13 0 32 -9 42 -20 17 -18 17 -20 1 -26 -16 -6
-37 1 -76 25 -8 5 -23 12 -34 15 -25 8 -13 54 22 83 26 20 27 25 24 97 -1 54
3 86 13 106 9 17 13 40 10 53 -10 39 83 222 145 284 41 42 56 52 75 47 17 -4
24 -1 28 16 8 31 32 19 33 -16z m-1073 -1374 c3 -69 11 -138 17 -155 5 -16 14
-59 19 -95 5 -36 16 -83 25 -105 8 -22 15 -65 16 -96 0 -34 5 -61 13 -68 10
-7 13 -32 10 -82 -1 -39 -5 -75 -8 -80 -3 -5 -8 -155 -10 -334 -2 -178 -6
-329 -10 -335 -3 -5 -43 -10 -88 -10 -45 0 -108 -6 -139 -14 -48 -11 -66 -11
-109 0 -28 7 -56 18 -63 23 -12 10 -3 203 14 303 6 31 8 75 4 98 -5 30 -2 51
12 80 11 22 22 40 26 40 4 0 17 19 29 41 15 29 22 66 25 123 2 45 10 99 19
120 17 39 49 186 60 269 3 26 10 71 16 100 6 29 15 104 20 167 27 297 22 282
64 200 30 -60 33 -75 38 -190z m-1319 -2201 c46 -10 60 -17 71 -40 19 -35 62
-69 89 -69 11 0 48 -11 81 -25 74 -30 125 -32 150 -5 10 11 21 17 26 14 5 -2
8 -59 8 -124 0 -91 4 -131 17 -166 12 -33 14 -48 6 -56 -12 -12 -32 3 -158
121 -83 78 -231 201 -242 201 -12 0 -132 134 -132 148 0 15 11 15 84 1z"/>
<path d="M8170 6945 c-10 -12 -10 -19 -2 -27 7 -7 12 -23 12 -36 0 -13 5 -33
12 -45 7 -12 11 -34 9 -49 -1 -15 1 -33 5 -40 4 -7 8 -25 8 -42 1 -16 7 -31
13 -33 19 -7 28 27 14 49 -7 11 -9 28 -6 38 3 11 1 29 -5 40 -9 16 -8 25 1 36
17 20 42 -2 35 -31 -3 -12 1 -30 8 -41 8 -10 12 -31 9 -45 -6 -32 23 -62 38
-38 4 8 6 23 2 34 -4 11 -7 29 -8 40 0 11 -7 31 -15 45 -8 14 -13 32 -12 40 1
8 -3 22 -8 30 -9 13 -11 13 -20 0 -14 -22 -43 0 -51 39 -9 44 -22 56 -39 36z"/>
<path d="M8294 6636 c-3 -8 -1 -23 4 -32 7 -12 6 -24 -1 -36 -9 -14 -9 -23 1
-38 10 -16 10 -24 0 -40 -10 -16 -10 -24 0 -40 9 -15 10 -26 2 -41 -9 -15 -8
-24 1 -35 9 -11 9 -21 1 -38 -8 -18 -7 -28 3 -42 9 -14 10 -22 1 -36 -8 -14
-8 -23 2 -38 9 -15 10 -26 2 -41 -8 -14 -8 -24 -1 -33 6 -7 8 -26 5 -43 -7
-37 16 -62 36 -38 11 13 11 20 0 39 -9 18 -9 29 -1 44 7 13 8 23 1 27 -5 3 -9
23 -9 43 0 20 -2 91 -6 157 -3 66 -6 155 -6 198 0 61 -3 77 -15 77 -8 0 -17
-6 -20 -14z"/>
<path d="M8075 6480 c-3 -6 -3 -20 1 -33 6 -18 13 -113 13 -184 0 -7 1 -22 1
-33 0 -39 0 -96 -1 -125 0 -11 0 -24 1 -30 1 -18 10 -179 10 -197 0 -10 0 -26
0 -35 0 -87 2 -103 10 -108 6 -3 5 -16 -1 -32 -7 -19 -6 -28 3 -34 9 -6 9 -13
0 -34 -14 -29 -9 -45 14 -45 20 0 29 27 14 44 -8 11 -9 20 0 35 8 15 8 27 0
41 -6 12 -7 27 -2 38 4 9 6 40 4 67 -2 28 -4 82 -5 122 -1 40 -7 77 -13 83 -9
9 -9 19 -1 41 8 21 8 32 0 40 -9 9 -9 16 0 30 9 15 9 24 -1 39 -10 16 -10 24
0 40 10 16 10 24 0 41 -10 16 -11 24 -1 35 9 12 9 20 -1 38 -9 18 -9 29 -1 44
8 15 8 23 0 28 -6 4 -9 20 -6 39 7 41 -21 73 -38 45z"/>
<path d="M8023 6018 c-12 -15 -11 -104 1 -131 5 -10 4 -23 -3 -31 -9 -10 -9
-20 0 -40 9 -20 10 -29 1 -38 -8 -8 -8 -17 -1 -30 6 -11 8 -32 4 -48 -4 -16
-2 -31 5 -35 6 -4 8 -20 4 -40 -5 -31 8 -56 23 -41 11 10 13 125 3 131 -6 3
-5 15 2 30 8 18 8 28 -1 39 -9 11 -9 20 -2 34 6 11 7 23 3 27 -4 3 -8 43 -8
87 -2 81 -12 110 -31 86z"/>
<path d="M7958 4599 c-10 -6 -18 -20 -18 -32 0 -12 -9 -28 -21 -35 -13 -8 -18
-19 -14 -31 3 -10 -1 -24 -10 -31 -8 -7 -15 -21 -15 -32 0 -10 -7 -30 -16 -44
-12 -18 -14 -28 -6 -36 7 -7 13 -4 21 10 6 10 7 22 4 26 -4 4 3 14 16 22 16
12 22 23 18 40 -4 24 22 42 43 29 15 -9 12 -41 -5 -55 -9 -7 -13 -21 -10 -30
3 -9 -1 -23 -10 -30 -18 -15 -20 -53 -2 -48 6 3 14 15 15 29 2 13 13 34 24 46
11 12 17 26 14 31 -3 5 3 17 14 27 11 10 20 27 20 38 0 11 7 28 16 38 21 23
11 57 -11 39 -8 -7 -15 -21 -15 -31 0 -24 -33 -42 -48 -27 -16 16 -15 28 4 49
21 24 15 51 -8 38z"/>
<path d="M8684 5233 c-9 -22 -5 -105 6 -117 6 -5 16 -4 25 4 14 12 18 11 26
-1 5 -8 7 -23 4 -34 -10 -35 -12 -99 -3 -116 11 -25 -15 -44 -32 -24 -10 12
-10 19 -2 27 7 7 8 17 1 29 -6 13 -6 25 2 37 15 25 4 54 -18 50 -22 -4 -30
-38 -11 -49 10 -7 11 -12 1 -29 -7 -11 -13 -30 -13 -43 0 -13 -5 -28 -12 -35
-18 -18 9 -43 38 -36 25 6 28 1 25 -41 -1 -11 3 -27 9 -35 9 -13 11 -13 20 0
6 8 8 24 6 35 -3 10 2 27 10 36 12 14 13 22 4 38 -7 14 -7 27 -1 39 9 16 10
32 11 92 0 84 -4 95 -35 95 -28 0 -30 2 -27 36 3 42 -20 71 -34 42z"/>
<path d="M8819 5068 c-1 -7 0 -19 1 -27 1 -8 -4 -25 -11 -38 -9 -17 -10 -26
-1 -35 8 -8 8 -16 0 -32 -15 -26 -19 -254 -6 -263 16 -9 29 19 22 49 -6 28 11
47 28 30 7 -7 6 -17 -2 -32 -9 -16 -9 -25 0 -35 7 -8 9 -26 5 -44 -7 -32 9
-51 28 -32 7 7 7 18 -1 36 -10 21 -9 27 4 32 11 4 13 13 9 35 -4 16 -2 34 3
41 7 8 6 18 -3 30 -11 16 -17 17 -35 7 -18 -10 -24 -9 -31 1 -5 8 -6 21 -2 29
3 8 6 26 7 39 2 35 26 39 26 4 0 -35 16 -62 28 -48 5 6 12 33 16 62 7 55 -4
74 -30 52 -23 -19 -43 5 -26 31 9 14 9 26 3 39 -6 10 -9 31 -8 46 1 15 -4 30
-10 32 -7 3 -14 -1 -14 -9z"/>
<path d="M8938 4883 c-3 -27 0 -56 5 -67 6 -12 5 -22 -2 -29 -6 -6 -11 -24
-11 -40 0 -15 -5 -37 -10 -48 -6 -11 -7 -19 -1 -19 5 0 8 -30 7 -67 -3 -74 1
-93 16 -93 7 0 9 16 5 40 -3 22 -1 43 5 46 5 4 8 17 5 30 -5 29 19 55 29 30 3
-9 1 -22 -5 -30 -6 -7 -7 -16 -3 -20 4 -4 7 -40 7 -79 0 -74 18 -107 22 -39 1
20 5 53 8 72 3 19 7 49 8 65 1 17 5 35 9 41 4 6 1 19 -6 30 -12 16 -16 16 -30
5 -9 -8 -20 -11 -23 -7 -4 4 -6 56 -5 116 2 89 -1 110 -12 110 -9 0 -15 -15
-18 -47z"/>
<path d="M9061 4637 c-13 -17 -23 -174 -12 -182 5 -2 14 2 21 11 18 21 32 -1
24 -38 -6 -28 10 -46 23 -26 4 7 9 22 10 33 1 11 6 40 11 65 11 50 -1 91 -21
71 -20 -20 -30 -12 -25 22 8 52 -6 73 -31 44z"/>
<path d="M8813 4475 c-3 -9 -3 -19 0 -22 4 -3 1 -15 -5 -27 -11 -21 -14 -35
-20 -110 -2 -22 -9 -41 -16 -44 -9 -3 -9 -9 -1 -24 10 -18 12 -18 28 -4 16 15
19 15 31 1 12 -14 15 -14 32 2 10 9 18 24 17 32 -3 31 1 41 16 41 18 0 19 -14
3 -40 -10 -15 -10 -22 0 -32 9 -9 16 -8 31 6 18 16 20 16 29 0 14 -25 32 -8
32 31 0 19 4 36 8 39 12 7 9 91 -3 91 -5 0 -9 -12 -8 -27 2 -18 -3 -31 -16
-38 -23 -12 -33 5 -20 32 9 18 2 48 -11 48 -13 0 -18 -24 -9 -41 6 -11 2 -24
-10 -38 -22 -25 -33 -15 -31 27 4 51 2 56 -16 41 -14 -11 -18 -11 -29 4 -7 9
-10 28 -7 42 5 27 -15 35 -25 10z"/>
<path d="M4784 10706 c-17 -8 -34 -21 -37 -30 -4 -9 -7 -104 -7 -211 l-2 -195
-29 0 -29 0 0 149 0 150 -26 20 c-15 12 -32 21 -39 21 -7 0 -24 -9 -39 -21
l-26 -20 0 -149 0 -149 -32 -3 c-30 -3 -33 -6 -33 -38 0 -32 3 -35 33 -38 l32
-3 0 -149 c0 -141 1 -150 22 -170 28 -25 62 -26 88 0 18 18 20 33 20 171 l0
150 28 -3 c15 -2 28 -9 28 -15 1 -7 2 -103 3 -213 1 -186 2 -201 21 -220 29
-29 90 -27 118 3 21 22 22 31 22 235 l0 212 25 0 25 0 0 -145 c0 -142 1 -147
25 -170 29 -30 55 -32 86 -6 23 18 24 25 26 168 l2 148 33 5 c30 5 33 8 33 40
0 32 -3 35 -32 38 -18 2 -33 6 -33 10 -2 196 -10 296 -24 310 -23 23 -76 19
-98 -7 -16 -20 -18 -42 -18 -167 l0 -144 -25 0 -25 0 0 198 c0 193 -1 199 -22
219 -32 29 -58 34 -94 19z"/>
<path d="M1915 9933 c-33 -9 -68 -19 -77 -24 -10 -5 -26 -9 -37 -9 -20 0 -98
-56 -166 -120 -22 -21 -55 -51 -72 -68 -32 -29 -33 -33 -33 -109 1 -65 5 -85
25 -118 17 -27 25 -55 25 -85 0 -31 10 -63 31 -103 17 -32 34 -80 39 -105 5
-26 15 -67 24 -92 8 -25 25 -78 37 -118 17 -57 27 -76 45 -83 13 -4 24 -13 24
-19 0 -5 29 -40 64 -77 83 -89 118 -159 121 -241 3 -73 13 -88 69 -103 89 -24
236 27 372 130 46 35 49 40 52 89 6 87 4 134 -7 190 -5 29 -11 83 -12 120 -2
73 -7 91 -20 71 -6 -10 -9 -6 -9 13 0 18 4 26 13 23 6 -3 22 13 35 35 l23 40
-26 10 c-15 6 -31 10 -36 10 -18 0 -9 32 11 37 11 3 20 11 20 19 0 7 9 18 20
24 38 21 19 80 -26 80 -30 0 -60 46 -43 66 9 11 9 27 1 67 -6 29 -14 74 -17
101 -6 53 -45 149 -74 181 -10 11 -24 36 -30 55 -16 48 -29 63 -76 82 -38 16
-194 50 -219 47 -6 -1 -38 -8 -71 -16z m230 -253 c18 -7 33 -27 52 -70 14 -33
29 -60 33 -60 4 0 26 -15 50 -34 40 -32 52 -50 80 -123 7 -18 16 -33 21 -33 5
0 9 -9 9 -19 0 -10 6 -21 14 -24 8 -3 20 -15 26 -26 9 -17 6 -22 -19 -35 -28
-15 -61 -76 -61 -115 0 -11 11 -33 25 -49 l25 -29 -42 -7 c-51 -8 -114 18
-122 50 -3 11 -32 44 -65 72 -56 49 -89 64 -92 42 -1 -5 -2 -16 -3 -22 -1 -7
-8 -11 -16 -9 -8 2 -36 5 -61 7 -25 2 -57 8 -72 13 -22 9 -26 15 -22 38 3 15
9 53 13 83 9 70 28 75 81 22 38 -38 73 -52 133 -52 22 0 33 7 46 29 9 17 30
33 47 38 38 11 44 46 16 100 -28 57 -69 67 -186 47 -49 -9 -111 -18 -137 -21
-26 -3 -53 -12 -59 -19 -15 -19 -85 -18 -92 0 -8 20 2 26 44 26 30 0 39 5 45
23 5 12 7 26 6 30 -1 4 5 10 13 13 9 4 22 19 31 35 18 36 30 37 38 4 4 -14 13
-25 22 -25 22 0 30 31 11 45 -48 35 95 83 168 55z"/>
<path d="M4485 9579 c-48 -14 -111 -74 -130 -124 -55 -143 44 -285 199 -285
74 0 126 26 172 87 122 160 -43 380 -241 322z m139 -80 c14 -11 26 -27 26 -35
0 -8 6 -14 14 -14 23 0 57 -50 50 -74 -9 -31 -42 -56 -74 -56 -22 0 -31 -7
-44 -34 -9 -19 -17 -45 -17 -58 -1 -16 -4 -13 -9 12 l-7 35 -2 -32 c-2 -56
-31 -34 -31 23 0 35 -46 75 -77 68 -49 -13 -86 59 -44 88 10 7 21 23 25 34 4
12 21 27 39 34 18 6 41 16 52 20 35 15 71 11 99 -11z"/>
<path d="M3867 9573 c-4 -3 -7 -96 -7 -205 l0 -198 45 0 45 0 0 118 0 117 49
-85 c27 -47 54 -85 61 -85 8 0 36 38 64 85 l51 85 3 -117 3 -118 39 0 39 0 3
178 c4 236 7 224 -50 220 l-45 -3 -49 -82 c-27 -46 -52 -83 -56 -83 -4 0 -30
40 -57 90 l-50 90 -41 0 c-22 0 -44 -3 -47 -7z"/>
<path d="M5285 9570 c-44 -18 -70 -59 -70 -110 0 -62 19 -83 113 -127 63 -28
73 -36 70 -56 -2 -17 -10 -23 -40 -25 -20 -2 -51 4 -68 13 -32 16 -33 16 -61
-11 -16 -15 -29 -31 -29 -35 0 -4 25 -20 55 -34 118 -58 241 -6 238 101 -2 54
-28 83 -108 119 -79 36 -88 45 -79 69 9 25 52 31 89 13 32 -15 33 -15 60 13
16 16 24 33 20 40 -20 33 -139 52 -190 30z"/>
<path d="M4840 9370 l0 -200 45 0 45 0 0 75 0 75 29 0 c40 0 59 -21 78 -91
l16 -59 49 0 c26 0 48 2 48 5 0 12 -53 143 -66 163 -8 12 -10 22 -4 22 17 0
50 63 50 95 0 39 -33 93 -66 105 -14 6 -70 10 -125 10 l-99 0 0 -200z"/>
<path d="M2720 8707 c-25 -13 -74 -44 -110 -70 -87 -63 -152 -98 -296 -161
-160 -70 -208 -82 -276 -66 -63 15 -83 31 -98 76 -13 39 -29 43 -55 14 -10
-11 -42 -31 -72 -45 -29 -14 -68 -39 -86 -55 -19 -16 -79 -53 -134 -83 -101
-54 -182 -114 -208 -153 -8 -12 -26 -66 -40 -120 -15 -55 -34 -124 -42 -154
-8 -31 -14 -89 -12 -135 2 -111 2 -112 -28 -120 -30 -7 -53 13 -53 48 0 26
-40 117 -52 117 -10 0 -2 -770 8 -818 4 -18 8 -21 17 -13 7 5 32 13 56 17 l42
7 -6 -44 c-8 -54 -10 -56 -30 -35 -9 9 -21 16 -26 16 -16 0 -10 -26 11 -45 16
-14 17 -21 8 -32 -9 -11 -9 -16 0 -22 7 -4 10 -15 7 -23 -4 -9 -2 -18 3 -21 5
-4 4 -39 -2 -83 -11 -77 -11 -78 -46 -87 l-35 -10 32 -13 31 -13 6 -98 c3 -54
8 -133 11 -175 4 -49 2 -78 -5 -78 -5 0 -12 12 -16 28 -11 52 -16 67 -27 95
-22 50 -29 28 -23 -70 9 -157 21 -836 17 -984 -2 -83 0 -139 6 -142 14 -9 39
21 63 76 20 46 21 54 10 285 -5 130 -10 297 -9 370 0 73 -2 165 -5 205 -4 55
-3 62 3 32 28 -128 40 -218 35 -256 -3 -26 1 -67 10 -102 17 -67 23 -77 39
-77 7 0 21 -17 32 -37 11 -21 35 -57 53 -81 73 -96 113 -173 113 -216 0 -22 7
-68 14 -101 8 -33 17 -75 20 -92 4 -18 11 -33 16 -33 5 0 9 -13 9 -28 0 -16 9
-54 20 -85 50 -142 59 -164 78 -202 11 -22 26 -69 32 -105 16 -87 30 -138 50
-180 10 -19 23 -60 30 -90 7 -30 17 -62 21 -70 31 -59 69 -184 69 -231 0 -13
7 -33 15 -43 8 -11 15 -30 15 -42 0 -13 4 -25 9 -28 5 -3 12 -27 16 -53 4 -25
14 -57 22 -70 11 -16 14 -35 9 -63 -3 -21 -2 -41 3 -44 5 -3 6 -35 4 -70 -6
-66 14 -143 43 -167 24 -20 17 -56 -12 -66 l-26 -9 26 -24 c29 -28 36 -84 11
-94 -8 -3 -15 -14 -15 -25 0 -15 5 -19 17 -14 13 5 15 2 10 -11 -4 -10 -7 -30
-8 -44 0 -26 -1 -25 -14 8 -7 19 -14 28 -14 20 -2 -32 -15 -41 -44 -27 -29 13
-35 27 -12 27 8 0 15 5 15 10 0 21 -31 9 -42 -16 -10 -20 -9 -27 2 -34 11 -7
11 -11 1 -24 -13 -16 -42 -21 -54 -10 -3 3 -1 14 6 24 9 15 7 22 -14 39 l-24
21 -27 -30 c-35 -38 -63 -40 -54 -5 5 20 3 25 -12 25 -20 0 -52 29 -52 48 0
21 -19 13 -23 -11 -3 -21 -4 -21 -15 5 -13 31 -28 42 -37 28 -3 -5 -14 -10
-25 -10 -10 0 -20 -7 -24 -15 -7 -20 -55 -38 -82 -31 -13 4 -26 15 -29 26 -7
23 -25 27 -25 5 0 -12 -15 -15 -79 -15 l-80 0 -4 33 c-3 22 -5 15 -6 -23 -1
-30 -6 -64 -10 -75 -9 -20 -8 70 2 175 2 30 2 44 0 31 -4 -19 -7 -21 -14 -10
-6 9 -7 -308 -4 -821 5 -794 9 -995 22 -1084 5 -35 7 -38 18 -23 14 19 40 22
50 7 4 -6 16 -8 27 -4 26 8 89 12 106 6 24 -8 12 -18 -17 -14 -26 4 -29 2 -24
-17 6 -25 -12 -29 -21 -4 -5 12 -9 14 -18 5 -15 -15 6 -37 45 -46 23 -5 27 -3
27 14 0 13 7 20 19 20 14 0 18 -5 14 -20 -3 -11 -12 -20 -19 -20 -20 0 -29
-27 -14 -45 8 -9 21 -13 35 -9 13 3 26 1 29 -5 4 -6 17 -11 29 -12 28 -1 91
-73 83 -94 -6 -17 -51 -21 -61 -5 -3 6 -15 10 -27 10 -11 0 -33 14 -48 30 -42
45 -78 38 -48 -10 10 -15 10 -22 0 -32 -10 -10 -18 -9 -42 5 -23 14 -34 15
-50 7 -16 -9 -20 -8 -20 4 0 9 -6 13 -14 10 -7 -3 -23 6 -34 21 -11 14 -22 22
-25 18 -7 -12 -1 -233 8 -276 10 -50 41 -70 97 -65 29 3 53 -1 75 -13 17 -10
49 -21 70 -24 84 -15 179 -51 187 -71 4 -9 22 -14 55 -14 27 0 51 -4 53 -10 3
-9 46 -18 95 -19 16 -1 21 -6 17 -16 -7 -17 -40 -20 -50 -4 -3 6 -18 9 -33 6
-14 -3 -35 0 -45 5 -11 6 -33 11 -48 10 -15 0 -28 4 -28 10 0 6 -3 8 -6 5 -4
-4 -1 -13 6 -22 7 -8 10 -21 7 -29 -6 -15 22 -46 41 -46 7 0 12 -9 12 -20 0
-11 -4 -20 -10 -20 -5 0 -10 -4 -10 -10 0 -15 26 -12 40 5 9 11 10 19 3 26
-12 12 -6 49 8 49 5 0 9 -6 9 -14 0 -18 24 -27 81 -31 58 -3 73 5 67 39 -4 22
-2 26 18 26 15 0 30 -10 41 -28 9 -15 30 -40 46 -56 24 -26 35 -29 75 -27 26
1 49 6 50 12 2 5 12 9 23 9 14 0 19 -7 19 -26 0 -44 18 -67 48 -59 15 4 34 13
43 21 15 14 19 11 39 -20 12 -21 30 -36 41 -36 10 0 19 -3 19 -7 -1 -18 -59
-75 -69 -69 -6 4 -15 -4 -21 -18 -5 -15 -17 -26 -27 -26 -19 0 -46 -46 -37
-61 9 -15 34 -10 34 6 0 18 41 20 71 4 11 -5 33 -12 49 -14 44 -5 70 -15 70
-26 0 -6 4 -8 9 -5 5 4 19 -10 31 -29 21 -34 40 -46 40 -25 0 12 20 13 39 1
23 -15 0 -55 -30 -56 -16 0 -23 -5 -21 -16 3 -22 -24 -43 -45 -35 -10 4 -14 4
-10 0 4 -4 0 -15 -8 -24 -14 -15 -14 -19 1 -31 14 -11 18 -11 30 5 8 12 19 16
30 12 16 -6 16 -7 0 -19 -16 -12 -16 -14 -2 -26 24 -20 46 -6 47 31 l1 33 13
-31 c13 -29 58 -59 74 -50 12 8 84 -21 97 -38 9 -14 21 -16 51 -10 30 5 36 4
26 -6 -9 -9 -9 -19 -2 -32 7 -13 7 -23 0 -32 -13 -16 -4 -26 24 -26 19 0 21 5
19 45 -3 43 10 61 22 30 6 -14 58 -45 76 -45 5 0 6 10 3 21 -7 21 -6 21 41 -5
27 -15 50 -23 52 -18 2 6 14 5 30 -3 43 -21 72 -27 72 -16 0 5 -4 13 -10 16
-23 15 -9 35 24 35 19 0 36 5 38 11 2 7 34 13 73 15 156 9 179 11 183 22 2 6
20 28 39 47 34 34 36 35 49 16 8 -11 11 -26 8 -35 -3 -9 -1 -16 5 -16 6 0 11
-6 11 -14 0 -9 8 -12 25 -8 16 3 25 0 25 -8 0 -10 3 -10 16 0 10 9 14 26 12
49 -2 30 -7 37 -28 39 -36 5 -49 21 -27 33 9 6 17 17 17 26 0 8 14 33 31 54
20 26 26 39 16 39 -15 0 -47 -31 -47 -46 0 -13 -58 -47 -100 -58 -65 -18 -190
-11 -243 13 -26 12 -62 24 -80 27 -39 6 -82 17 -164 41 -58 17 -63 21 -77 58
-10 28 -12 53 -6 85 l7 45 2 -41 c0 -22 7 -48 14 -58 22 -30 156 -56 290 -56
106 0 122 2 165 25 46 24 92 58 92 68 0 15 -55 16 -77 2 -32 -22 -42 -11 -22
24 13 22 14 33 5 49 -11 20 -11 20 -35 1 -13 -11 -39 -19 -60 -19 -28 0 -45
-8 -69 -31 -28 -27 -40 -31 -98 -35 -70 -4 -116 11 -128 42 -3 9 -3 38 0 65 5
41 4 50 -11 55 -13 5 -15 14 -11 37 4 17 12 35 19 39 7 5 1 6 -14 2 -39 -9
-43 10 -9 44 16 17 30 39 30 49 0 10 7 26 15 36 13 18 14 18 24 -2 15 -28 14
-63 -5 -89 -20 -28 -13 -28 55 5 36 18 50 29 38 31 -25 5 -21 21 8 28 19 5 25
13 25 35 0 19 -5 29 -15 29 -8 0 -15 7 -15 16 0 13 3 14 15 4 12 -10 16 -10
19 1 8 29 26 138 25 146 -1 4 1 17 5 28 4 11 12 32 18 47 14 37 36 43 48 13 5
-14 7 -31 4 -39 -3 -8 3 -19 14 -25 12 -6 31 -45 52 -103 17 -51 37 -99 43
-107 7 -8 19 -39 27 -70 12 -45 20 -57 38 -59 14 -2 22 2 22 12 0 18 -19 65
-35 86 -16 21 -44 98 -38 104 3 3 11 0 19 -7 36 -32 45 -38 54 -32 5 3 16 -20
25 -52 9 -32 18 -64 21 -71 3 -10 13 -12 36 -7 39 9 34 4 41 35 5 21 1 28 -23
39 -17 7 -30 19 -30 27 0 7 -16 59 -35 115 -35 105 -55 141 -55 101 0 -12 -4
-22 -9 -22 -9 0 -19 24 -40 90 -6 19 -21 44 -33 57 -12 13 -17 23 -12 23 19
-1 52 -38 72 -81 14 -29 21 -37 21 -24 1 12 -11 45 -27 75 -22 45 -32 56 -55
58 -51 6 -74 -33 -40 -70 9 -10 13 -21 10 -25 -12 -11 -55 15 -62 36 -3 12
-14 21 -23 21 -26 1 -47 22 -60 59 -18 50 -15 59 20 80 24 15 42 18 79 14 38
-4 52 -2 66 12 16 16 18 16 21 3 2 -9 22 -23 45 -32 52 -20 61 -20 54 -2 -3 7
0 19 6 25 8 8 1 11 -26 11 -30 0 -37 4 -37 19 0 11 -4 23 -10 26 -5 3 -10 13
-10 20 0 11 11 13 46 11 43 -4 75 -16 41 -16 -10 0 -17 -4 -17 -10 0 -10 20
-14 53 -12 18 2 23 -13 7 -23 -14 -9 -12 -25 3 -25 40 0 73 -111 47 -159 l-11
-22 -24 25 c-13 14 -27 26 -30 26 -10 0 7 -24 27 -38 10 -7 28 -32 39 -54 21
-41 21 -41 1 -61 -20 -20 -20 -20 -37 14 -21 40 -83 114 -71 84 5 -11 11 -29
14 -40 2 -11 10 -27 17 -35 7 -8 18 -32 24 -52 7 -21 17 -40 22 -43 5 -4 9
-17 9 -30 0 -13 5 -27 10 -30 6 -3 10 3 10 14 0 12 5 20 12 19 29 -7 69 136
46 168 -8 11 37 42 47 32 3 -3 6 -22 7 -42 2 -65 57 -85 110 -41 34 29 64 32
90 8 22 -20 35 -10 42 31 7 37 14 43 22 21 4 -10 2 -26 -4 -35 -14 -22 -6 -30
30 -30 29 0 39 -8 96 -76 46 -55 38 -87 -12 -49 -28 21 -36 19 -36 -9 0 -35
-24 -39 -39 -5 -15 34 -37 37 -62 8 -14 -16 -16 -26 -9 -40 6 -10 10 -25 10
-35 0 -13 -3 -14 -15 -4 -8 7 -15 22 -15 33 0 19 -1 19 -19 3 -14 -13 -28 -16
-55 -11 -41 8 -50 35 -12 35 32 0 45 20 14 21 -13 1 -28 1 -34 0 -6 -1 -11 9
-10 21 1 27 -59 67 -76 50 -8 -8 -3 -14 18 -22 28 -11 28 -12 10 -26 -11 -8
-22 -14 -26 -14 -15 0 -29 -42 -23 -71 5 -24 15 -35 47 -49 23 -9 47 -25 55
-34 7 -9 22 -16 34 -16 17 0 19 5 14 37 -4 21 -3 33 1 27 9 -14 41 -27 69 -29
16 -1 26 8 35 30 l12 30 3 -31 c3 -20 11 -34 21 -36 24 -7 42 1 42 18 0 18 24
18 40 -1 7 -8 16 -12 21 -9 5 3 16 -2 25 -10 31 -31 47 -14 50 51 1 42 0 43
-30 44 l-31 1 30 7 c27 6 30 10 29 46 -1 21 -6 41 -13 43 -6 2 -11 10 -11 18
0 8 -8 14 -18 14 -31 0 -72 24 -78 46 -3 12 -16 27 -30 34 -24 13 -24 13 -3
28 18 12 22 12 37 -2 12 -10 30 -14 55 -10 25 3 36 1 32 -6 -3 -5 -20 -10 -36
-10 -18 0 -28 -4 -24 -10 3 -5 21 -10 40 -10 18 0 36 -6 38 -12 3 -7 6 4 6 25
1 46 -19 70 -51 62 -14 -3 -39 3 -63 15 -47 24 -59 25 -76 4 -7 -8 -21 -13
-31 -11 -11 3 -18 0 -18 -8 0 -27 -19 -24 -51 6 -19 18 -34 41 -34 51 0 19
-39 40 -103 55 -13 3 -21 12 -20 22 2 11 -5 16 -22 16 -15 0 -26 7 -28 18 -2
9 0 17 5 18 89 10 165 4 266 -22 31 -8 42 -7 56 5 22 20 31 20 31 1 0 -17 26
-20 36 -4 3 6 1 14 -5 18 -19 12 -18 82 1 94 9 6 21 8 25 3 4 -4 0 -12 -10
-17 -24 -14 -24 -54 1 -44 26 12 76 13 83 2 4 -6 8 47 8 117 2 124 1 127 -26
161 -15 19 -34 35 -40 35 -16 0 -17 -12 -3 -26 11 -11 4 -44 -9 -44 -4 0 -20
13 -34 30 -15 16 -32 30 -37 30 -13 0 -13 -33 -1 -46 6 -5 -3 -9 -25 -9 -24 0
-41 8 -59 28 -23 24 -28 26 -48 13 -28 -17 -107 -10 -107 10 0 19 -19 18 -26
-1 -4 -8 -18 -15 -33 -16 -23 0 -24 -1 -6 -9 18 -7 17 -9 -15 -23 -39 -17 -80
-6 -61 17 8 9 2 17 -20 30 -29 17 -30 19 -12 35 14 14 27 16 58 10 22 -4 44
-3 50 2 5 5 19 9 32 9 30 0 29 22 -2 56 -14 15 -25 31 -25 35 0 17 41 9 46 -8
10 -33 21 -48 35 -48 8 0 13 6 11 13 -1 9 4 12 15 8 10 -2 44 -10 76 -17 54
-12 59 -11 78 9 28 31 115 32 124 1 5 -14 14 -19 28 -17 21 3 22 8 21 96 -1
71 -5 97 -18 111 -16 17 -16 19 4 24 31 8 27 73 -7 112 -23 26 -32 30 -73 28
-26 -1 -53 -3 -61 -5 -7 -2 -15 5 -17 14 -3 16 5 18 72 18 59 0 77 -3 84 -16
6 -11 12 -13 16 -6 4 6 -1 23 -10 38 -16 24 -16 27 -2 35 14 8 16 24 12 102
-4 99 -26 868 -28 1005 -1 51 -6 86 -13 90 -6 4 -13 21 -15 37 -4 41 -42 43
-46 2 -5 -39 -62 -63 -62 -26 0 19 -30 40 -65 46 -21 3 -44 16 -54 29 -11 14
-29 24 -42 23 -23 -1 -23 -2 4 -12 35 -14 35 -36 -1 -33 -15 1 -32 5 -38 8 -5
4 -16 3 -24 -2 -16 -10 -42 -2 -34 11 3 5 13 9 23 9 13 0 18 7 16 24 -2 13 0
27 4 33 8 13 81 11 81 -2 0 -5 5 -3 10 5 8 12 10 9 10 -12 0 -29 19 -40 21
-13 4 58 4 60 -25 63 -28 3 -28 5 -24 53 l5 49 -38 6 c-22 4 -39 10 -39 15 0
4 -8 9 -17 11 -11 2 -18 13 -19 28 -3 98 -3 98 -36 109 -24 9 -29 14 -20 23
16 16 15 28 -3 28 -11 0 -14 7 -10 23 4 15 1 28 -9 36 -9 8 -16 26 -16 41 0
16 -5 30 -11 32 -18 6 -27 94 -15 140 8 31 8 42 0 45 -7 2 -10 13 -7 24 3 11
-2 28 -12 39 -13 14 -19 40 -21 89 -2 74 -37 186 -60 195 -20 8 -17 44 4 49
13 4 11 5 -5 6 -28 1 -31 21 -3 21 11 0 20 7 20 15 0 25 -69 19 -92 -7 -11
-13 -24 -23 -28 -23 -5 0 -16 -9 -24 -20 -13 -18 -14 -16 -13 32 2 35 8 58 22
73 21 23 29 105 12 128 -6 8 -6 43 1 95 7 55 7 124 0 212 -15 207 -14 242 6
264 19 21 14 41 -9 41 -24 0 -62 58 -75 112 -6 29 -20 80 -30 113 -11 33 -24
79 -30 102 -7 30 -15 41 -28 40 -15 -1 -17 -16 -19 -126 -2 -69 -5 -138 -9
-153 -10 -50 -24 -29 -24 36 0 65 0 66 -66 186 -28 50 -6 110 30 81 6 -5 22
-11 35 -13 20 -2 26 3 32 25 10 36 27 57 48 57 18 0 44 -71 46 -128 1 -18 7
-38 13 -44 7 -7 12 -26 12 -42 0 -17 9 -65 19 -106 15 -58 21 -70 26 -52 4 12
11 22 16 22 5 0 6 -7 2 -16 -5 -15 0 -16 41 -12 52 6 65 13 50 28 -6 6 -19 4
-37 -5 -15 -7 -28 -12 -28 -9 -1 2 -2 10 -3 17 -1 6 -9 11 -19 11 -9 -1 -17 2
-17 6 0 16 61 22 188 20 135 -3 223 5 259 22 34 16 18 28 -40 29 l-52 1 51 8
c29 4 56 10 60 13 5 3 54 -1 109 -8 58 -7 83 -13 60 -14 -32 -1 -36 -4 -23
-12 10 -5 15 -16 12 -24 -5 -12 2 -15 30 -15 l36 0 0 243 c0 253 -3 287 -26
287 -8 0 -14 3 -15 8 -13 173 -8 242 17 242 9 0 14 11 14 35 0 21 -5 35 -12
35 -10 0 -10 2 0 9 10 6 12 57 8 242 -2 129 -5 257 -5 284 -1 56 -4 63 -43 88
-37 23 -50 22 -79 -9 -23 -24 -23 -26 -7 -54 10 -18 13 -32 7 -36 -6 -3 -9
-13 -8 -22 6 -40 -13 -112 -32 -122 -10 -6 -19 -19 -19 -29 0 -10 -7 -24 -15
-31 -8 -7 -15 -19 -15 -26 0 -8 -4 -14 -9 -14 -5 0 -23 -23 -40 -50 -17 -28
-36 -48 -41 -45 -6 3 -10 -5 -10 -19 0 -15 -10 -35 -25 -48 -13 -11 -21 -26
-18 -32 3 -6 3 -8 -2 -4 -10 10 -28 -10 -44 -50 -8 -19 -24 -40 -37 -49 -13
-8 -26 -23 -29 -34 -4 -10 -11 -19 -16 -19 -24 0 -141 -107 -159 -146 -15 -31
-27 -43 -49 -47 -18 -4 -37 -18 -47 -34 -10 -15 -29 -39 -43 -53 -14 -14 -33
-36 -41 -49 -9 -13 -26 -24 -40 -25 -18 -1 -26 -8 -28 -24 -5 -33 -24 -36 -76
-13 -43 20 -45 23 -43 59 1 28 8 39 25 47 12 5 22 15 22 22 0 7 9 18 20 25 11
7 20 17 20 23 0 22 54 115 67 115 8 0 19 13 26 29 7 15 27 40 45 55 20 17 32
37 32 52 0 15 16 42 39 67 22 23 43 55 46 70 5 17 16 29 31 33 13 3 24 11 24
18 0 6 9 29 20 51 11 22 20 45 20 52 0 15 36 80 56 100 7 8 14 33 14 56 1 47
10 62 58 96 17 12 32 31 32 42 0 10 9 24 20 31 20 13 26 38 13 52 -8 7 -9 12
-22 103 -5 34 -16 76 -25 95 -8 18 -16 40 -18 48 -2 8 -11 21 -22 30 -10 9
-20 27 -22 41 -8 59 -26 115 -39 125 -19 14 -27 77 -12 86 6 4 9 9 6 13 -6 5
-74 -15 -166 -49 -59 -22 -152 -35 -160 -23 -8 13 32 42 87 63 82 31 286 132
300 148 10 13 10 22 2 39 -6 12 -32 76 -57 142 -61 158 -90 225 -137 314 -41
79 -142 236 -158 246 -18 11 -10 25 13 25 l22 1 -24 19 c-13 11 -32 20 -43 20
-21 0 -101 24 -155 47 -17 7 -45 13 -63 13 -32 0 -77 12 -195 52 -88 30 -96
30 -145 5z m346 -1147 c-3 -47 -10 -137 -15 -200 -28 -334 -34 -570 -23 -802
17 -333 16 -512 -3 -528 -9 -7 -18 -10 -21 -7 -9 9 -23 306 -30 665 -7 367 3
580 37 757 11 55 22 141 25 190 3 50 8 97 11 105 12 29 24 -96 19 -180z m267
-509 c18 -11 25 -21 18 -25 -6 -4 -15 -4 -21 -1 -5 3 -10 -1 -10 -10 0 -8 7
-18 15 -21 20 -8 45 13 38 32 -3 8 1 14 11 14 9 0 21 -11 26 -25 12 -32 28
-32 36 0 6 24 7 24 35 10 54 -28 52 -104 -3 -120 -26 -8 -32 -15 -31 -32 3
-25 -15 -30 -36 -10 -10 10 -12 3 -10 -35 4 -64 -13 -82 -44 -46 -26 31 -82
59 -103 51 -10 -3 -14 2 -15 18 0 13 -3 18 -6 11 -2 -6 -9 -10 -14 -6 -8 5
-14 -36 -9 -61 1 -5 7 -62 14 -126 14 -125 18 -139 44 -139 38 0 44 -14 23
-61 -19 -44 -19 -44 -26 -16 -9 33 -25 36 -26 5 -2 -54 -21 45 -39 207 -16
139 -27 403 -13 315 8 -53 14 -70 23 -70 6 0 10 16 10 36 0 19 5 55 11 80 10
40 14 44 43 44 17 0 44 -9 59 -19z m-1711 -985 c2 -97 0 -130 -9 -133 -7 -3
-13 -9 -13 -14 0 -4 7 -6 15 -3 12 5 15 -3 15 -40 0 -51 -6 -55 -38 -26 -26
24 -27 54 -11 210 14 134 18 155 29 144 5 -5 10 -67 12 -138z m1311 -173 c7
-35 -26 -87 -69 -107 -50 -24 -104 -73 -133 -118 -52 -81 -117 -120 -170 -102
-41 15 -38 39 8 60 22 11 41 25 41 32 0 19 24 14 38 -8 7 -11 19 -20 27 -20
17 0 20 16 5 25 -19 12 -10 60 17 90 15 16 34 42 43 57 14 27 150 117 176 118
7 0 14 -12 17 -27z m-1183 -219 c19 -14 53 -38 75 -54 81 -60 278 -112 420
-111 39 0 84 -4 102 -10 24 -8 43 -7 76 5 53 18 155 32 144 20 -19 -20 -113
-35 -257 -41 -200 -7 -293 10 -465 88 -44 20 -185 119 -185 130 0 15 52 -1 90
-27z m920 -2156 c0 -7 12 -35 25 -63 14 -27 25 -67 25 -87 0 -35 11 -65 63
-174 15 -32 17 -46 8 -60 -9 -17 -10 -16 -11 9 0 22 -4 27 -22 26 -13 0 -17
-3 -10 -6 14 -6 16 -49 2 -58 -6 -3 -14 5 -19 18 -6 14 -14 28 -20 31 -16 10
-24 -13 -10 -30 9 -11 9 -18 -4 -32 -9 -10 -19 -44 -22 -77 -3 -33 -8 -72 -11
-87 -3 -14 0 -29 5 -33 6 -3 11 1 11 9 0 9 4 16 9 16 13 0 0 -44 -16 -53 -7
-5 -13 -25 -13 -47 0 -22 -4 -40 -10 -40 -6 0 -8 25 -5 63 2 34 9 123 14 197
9 120 0 429 -14 467 -2 6 -1 14 2 17 11 10 23 7 23 -6z m1488 -151 c0 -24 3
-61 6 -84 5 -25 3 -43 -3 -47 -13 -9 -51 15 -51 31 0 8 -14 13 -35 13 -19 0
-35 -4 -35 -10 0 -5 -9 -10 -20 -10 -15 0 -20 7 -20 28 0 15 -3 36 -5 47 -7
29 10 54 27 37 9 -9 8 -12 -7 -12 -19 0 -18 -1 2 -21 21 -21 22 -22 45 -3 14
11 23 24 21 29 -3 11 43 43 64 44 8 1 12 -14 11 -42z m-2494 -599 c21 -79 -8
-597 -35 -623 -8 -7 -9 0 -3 25 5 19 8 163 7 319 -1 156 0 288 3 293 9 15 22
9 28 -14z m926 -684 c12 -70 12 -79 -5 -110 -10 -19 -29 -41 -41 -49 -28 -18
-31 -35 -7 -35 23 0 73 49 73 72 0 34 31 18 51 -27 l20 -45 -28 -35 c-31 -39
-39 -41 -67 -20 -11 8 -28 13 -38 9 -13 -4 -23 3 -34 23 -9 15 -31 37 -48 49
-17 11 -30 25 -29 31 1 6 -11 13 -27 17 -39 7 -38 19 4 61 32 32 35 33 61 19
34 -18 41 -13 50 33 7 40 30 83 44 83 4 0 14 -34 21 -76z m-258 -55 c20 -11
25 -39 6 -39 -7 0 -19 -4 -27 -9 -12 -8 -9 -16 16 -45 17 -19 34 -44 38 -56 4
-13 12 -19 21 -16 7 3 16 1 19 -4 4 -6 -1 -10 -10 -10 -13 0 -15 -9 -10 -52
l6 -53 -31 64 c-16 35 -30 67 -30 71 0 13 -40 43 -47 36 -4 -4 -6 -40 -5 -79
3 -52 9 -80 24 -102 35 -52 88 -65 88 -22 0 18 2 19 10 7 14 -21 13 -27 -10
-50 -28 -28 -46 -25 -81 12 l-29 32 0 -36 c0 -43 6 -48 66 -54 51 -6 69 5 106
63 l20 34 -21 23 c-29 31 -26 37 9 24 26 -8 34 -7 50 7 11 10 20 28 20 39 1
18 6 15 35 -18 33 -37 35 -38 52 -20 10 9 23 27 28 38 15 31 45 33 45 4 1 -13
7 -34 14 -47 12 -21 14 -22 20 -6 4 12 10 15 17 8 9 -9 79 3 104 18 18 12 64
7 76 -7 6 -8 16 -11 21 -8 5 3 19 -3 31 -14 22 -20 92 -32 113 -19 12 7 54
-27 54 -43 0 -14 -18 -12 -23 3 -2 6 -8 8 -13 4 -5 -4 -3 -12 5 -16 7 -5 11
-19 9 -32 -3 -22 -4 -22 -21 -5 -13 14 -26 16 -57 11 -26 -4 -40 -3 -40 4 0 6
-5 11 -11 11 -5 0 -7 -5 -4 -10 4 -6 -7 -13 -25 -16 -17 -4 -33 -11 -36 -15
-9 -15 -34 -10 -34 7 0 10 7 14 23 12 16 -2 22 2 22 17 0 13 -7 20 -20 20 -11
0 -31 6 -44 14 -21 12 -26 11 -36 -3 -7 -9 -17 -16 -24 -16 -16 0 -14 -40 3
-46 15 -6 56 -76 56 -94 0 -29 -111 -90 -163 -90 -8 0 -28 -7 -43 -15 -18 -9
-57 -15 -104 -15 -84 0 -120 -16 -120 -53 0 -35 -34 -52 -190 -92 -69 -18
-120 -18 -143 -1 -14 11 -26 11 -51 4 -28 -9 -41 -7 -72 8 -47 24 -49 38 -4
42 67 5 123 23 176 57 30 19 54 39 54 45 0 16 -33 26 -38 12 -2 -7 -10 -12
-18 -12 -17 0 -17 5 -2 29 9 16 5 24 -30 56 -23 20 -42 43 -42 50 0 7 14 18
30 25 36 15 37 20 7 57 -28 34 -39 60 -28 67 5 3 11 19 14 35 3 15 20 43 37
60 18 17 30 38 27 45 -3 7 1 25 8 39 11 22 11 28 -1 38 -8 6 -14 20 -14 30 0
11 -6 28 -12 39 -11 17 -10 22 2 31 17 12 154 3 182 -12z m-742 -172 c0 -16 3
-18 12 -9 15 15 58 16 58 1 0 -6 -6 -9 -14 -6 -9 4 -16 -3 -19 -18 -2 -14 -3
-26 -1 -27 1 -2 23 -2 48 0 31 3 46 9 46 18 0 8 9 14 20 14 11 0 20 -6 20 -13
0 -7 15 -21 34 -31 31 -16 37 -17 63 -4 21 10 37 12 57 5 38 -13 44 -2 17 33
-16 22 -18 30 -7 30 21 0 64 -40 49 -46 -23 -10 -13 -24 16 -24 38 0 46 -14
31 -51 -12 -28 -30 -40 -30 -19 0 5 -7 7 -15 4 -22 -9 -18 -35 5 -41 11 -3 20
-14 20 -24 0 -17 -3 -17 -20 -7 -10 7 -22 9 -26 5 -11 -10 29 -37 41 -28 20
16 55 19 66 5 9 -11 6 -16 -15 -24 -34 -12 -33 -24 4 -50 37 -26 40 -49 6 -43
-15 3 -50 -10 -99 -37 -50 -27 -86 -40 -104 -38 -24 3 -25 4 -11 18 33 32 57
48 77 55 20 6 81 61 81 72 0 3 -11 3 -24 1 -18 -4 -26 0 -29 13 -4 14 -12 17
-32 13 -25 -4 -26 -3 -11 11 16 17 22 45 9 45 -5 0 -20 -8 -35 -18 -18 -12
-24 -22 -18 -28 5 -5 11 -22 12 -36 1 -15 7 -24 14 -21 15 5 28 -13 15 -21
-11 -7 -49 6 -51 16 -5 50 -34 93 -63 96 -15 2 -27 8 -27 15 0 8 -3 8 -11 0
-8 -8 -7 -17 5 -34 9 -13 16 -32 16 -43 0 -18 -3 -17 -29 8 -20 19 -43 30 -68
32 -21 2 -56 8 -78 15 -22 6 -49 11 -60 12 -11 1 -27 10 -35 19 -8 10 -26 19
-40 21 -56 8 -76 26 -77 69 -2 33 2 41 18 45 11 3 25 16 30 29 7 19 16 24 43
24 19 0 36 6 39 13 3 9 17 12 41 9 29 -3 36 -9 36 -25z m1090 -473 c-11 -12
-11 -20 -2 -35 11 -17 10 -18 -14 -7 -21 10 -27 9 -35 -3 -13 -21 18 -41 42
-28 16 8 19 6 19 -15 0 -14 5 -28 11 -32 12 -7 31 15 23 28 -3 4 2 8 10 8 9 0
16 -8 16 -17 1 -27 56 -83 82 -83 31 1 180 -33 197 -44 7 -5 20 -23 27 -40 8
-17 26 -47 40 -66 17 -24 24 -44 21 -63 -2 -15 0 -30 5 -33 13 -8 9 -24 -6
-24 -8 0 -16 10 -18 23 -2 14 -9 21 -20 19 -22 -3 -33 15 -19 32 9 11 8 18 -4
29 -8 9 -15 20 -15 25 0 10 -60 25 -68 17 -3 -3 7 -16 21 -29 15 -14 27 -35
27 -46 0 -19 -4 -21 -30 -15 -24 5 -30 3 -30 -9 0 -10 12 -19 30 -22 17 -4 30
-13 30 -20 0 -8 -1 -14 -3 -14 -2 0 -29 5 -61 11 -39 7 -61 7 -70 0 -6 -5 -36
-11 -66 -13 -54 -3 -55 -2 -55 24 1 27 0 27 -24 11 -21 -14 -26 -14 -35 -1
-10 13 -72 28 -191 45 -22 3 -44 12 -48 19 -4 8 -21 14 -37 14 -25 0 -30 4
-30 25 0 22 -4 25 -35 25 -26 0 -33 -3 -29 -15 5 -11 -1 -15 -19 -15 -14 0
-28 -4 -31 -8 -6 -10 -78 0 -119 17 -16 6 -26 15 -23 20 8 12 53 2 67 -15 16
-19 59 -18 59 1 0 8 5 15 10 15 6 0 10 6 10 14 0 32 27 38 74 17 69 -32 122
-24 61 9 -18 10 -22 16 -13 22 7 4 20 5 29 3 9 -3 28 -1 43 5 22 8 25 13 17
28 -6 10 -6 24 -1 32 7 12 13 12 33 1 14 -7 30 -10 36 -7 15 9 2 36 -18 36
-17 1 -59 50 -42 50 5 0 13 -4 16 -10 9 -15 45 -12 45 4 0 7 -11 21 -25 30
-32 21 -24 36 19 36 24 0 35 5 39 19 3 11 19 22 43 28 46 11 52 9 34 -13z"/>
<path d="M2205 1939 c-7 -10 -9 -114 -3 -140 2 -6 -3 -14 -9 -16 -8 -3 -13 4
-13 19 -1 40 -24 -2 -39 -71 -16 -70 -10 -83 43 -95 32 -8 31 -12 10 101 -5
28 -3 33 19 38 22 6 25 11 22 43 -2 21 1 42 6 48 12 15 -1 84 -17 84 -7 0 -16
-5 -19 -11z"/>
<path d="M2890 1105 c0 -8 -6 -15 -12 -15 -7 -1 -3 -6 10 -13 27 -16 19 -27
-20 -27 -15 0 -28 -4 -28 -8 0 -8 -152 -9 -179 -1 -28 8 -21 -20 9 -36 25 -13
41 -14 75 -7 24 5 47 6 52 1 4 -4 27 -11 50 -15 36 -5 41 -4 40 12 -1 11 7 20
20 23 30 8 66 74 50 90 -17 17 -67 14 -67 -4z"/>
<path d="M3543 8490 c5 -57 4 -60 -18 -66 -41 -10 -69 -1 -75 26 -4 17 -8 21
-14 12 -14 -22 52 -100 140 -166 37 -28 39 -32 36 -75 -5 -73 5 -80 118 -69
52 5 102 13 110 18 9 4 36 11 60 14 25 4 82 14 128 23 l82 16 0 54 c0 34 -5
55 -12 58 -7 3 -44 1 -83 -4 -38 -4 -76 -6 -82 -4 -8 3 -12 22 -10 52 l2 46
-168 2 c-102 1 -173 6 -181 12 -9 8 -11 27 -8 61 4 43 2 50 -13 50 -16 0 -17
-7 -12 -60z"/>
<path d="M4009 8170 c-41 -4 -85 -12 -96 -19 -12 -6 -75 -18 -139 -26 -65 -9
-120 -18 -123 -20 -2 -3 1 -16 7 -30 7 -14 12 -33 12 -41 0 -16 40 -106 50
-114 4 -3 10 -12 13 -20 4 -12 6 -11 6 3 1 10 6 15 12 11 6 -3 8 -16 5 -28 -3
-12 2 -41 10 -65 8 -25 12 -56 9 -72 -5 -20 4 -54 30 -116 20 -48 41 -104 47
-123 5 -19 13 -39 17 -45 4 -5 13 -30 20 -55 7 -25 19 -52 26 -60 15 -19 39
-116 31 -129 -3 -5 -3 -16 0 -25 5 -14 21 -16 96 -15 l90 2 -6 51 c-3 28 -8
85 -12 127 -5 62 -9 76 -23 75 -26 -2 -27 58 -2 76 17 12 19 20 12 44 -5 17
-4 85 3 159 12 147 6 457 -9 460 -5 1 -44 -1 -86 -5z"/>
<path d="M5937 4562 c-10 -10 -17 -33 -17 -50 0 -22 -5 -32 -15 -32 -8 0 -15
5 -15 10 0 20 -30 9 -66 -25 -20 -19 -43 -35 -50 -35 -8 0 -14 -5 -14 -11 0
-13 73 -2 78 12 5 12 74 12 106 -1 31 -11 34 -30 6 -30 -10 0 -23 -8 -28 -17
-8 -13 -4 -21 15 -36 23 -19 25 -19 44 -1 11 10 18 26 16 36 -3 10 -1 20 3 23
13 8 40 -6 40 -20 0 -6 9 -20 20 -30 19 -17 20 -16 50 14 18 18 42 31 56 31
21 0 24 4 24 40 0 44 -25 66 -63 56 -11 -3 -29 0 -40 5 -24 14 -67 3 -67 -16
0 -8 -4 -15 -10 -15 -5 0 -10 17 -10 38 0 25 -7 43 -20 55 -25 21 -23 21 -43
-1z"/>
<path d="M6286 4571 c-4 -5 -1 -11 6 -13 13 -5 -54 -78 -72 -78 -5 0 -10 -18
-10 -40 0 -38 1 -40 33 -40 32 -1 77 -29 77 -49 0 -6 18 -11 40 -11 33 0 40 3
40 20 0 16 -7 20 -36 20 -36 0 -73 23 -54 35 5 3 10 0 10 -7 1 -9 5 -7 14 5
12 16 15 16 26 1 12 -14 14 -14 23 3 6 9 11 30 12 46 2 27 1 28 -37 22 -25 -4
-38 -3 -38 4 0 6 7 11 15 11 8 0 15 5 15 10 0 6 -7 13 -15 16 -20 8 -19 34 2
34 22 0 14 6 -19 14 -15 3 -29 2 -32 -3z"/>
<path d="M6735 3468 c-27 -6 -76 -10 -107 -11 -32 0 -58 -4 -58 -9 0 -5 -11
-13 -25 -18 -14 -5 -25 -14 -25 -19 0 -14 36 -32 45 -23 4 4 6 0 3 -8 -2 -8 3
-21 13 -30 28 -25 33 -67 9 -82 -32 -20 -24 -44 19 -61 22 -9 42 -21 46 -27
14 -23 54 -29 122 -19 112 16 143 28 143 57 0 14 -9 36 -21 48 -25 26 -20 39
18 47 16 3 37 12 48 21 20 14 19 15 -10 40 -17 14 -33 26 -36 26 -3 0 -13 15
-21 34 -22 46 -61 54 -163 34z"/>
<path d="M3776 803 c-3 -3 0 -13 6 -21 10 -11 9 -17 -5 -27 -21 -15 -21 -35
-1 -78 15 -30 20 -34 43 -27 18 4 34 1 51 -10 14 -10 49 -32 77 -50 56 -34 63
-56 12 -38 -43 15 -46 4 -4 -12 33 -13 35 -16 32 -56 -2 -29 2 -50 14 -66 18
-23 18 -23 33 -3 l15 20 2 -20 c1 -11 3 -26 3 -34 2 -28 24 -22 31 8 8 39 -10
75 -36 68 -15 -4 -17 -2 -9 13 6 10 10 28 10 40 0 30 30 38 50 12 12 -15 24
-19 40 -15 20 5 22 3 18 -15 -7 -24 5 -37 23 -26 7 4 7 10 1 16 -13 13 -4 38
13 38 8 0 13 -13 13 -34 0 -19 3 -39 7 -45 17 -28 25 -4 25 77 0 77 -2 89 -20
100 -12 7 -18 17 -15 22 13 20 -17 19 -46 -2 l-31 -23 -17 25 c-25 39 -60 72
-70 65 -5 -3 -34 6 -65 20 -30 14 -59 25 -65 25 -9 0 -60 23 -112 50 -9 5 -20
6 -23 3z"/>
<path d="M1757 693 c-3 -5 -4 -30 -3 -58 l1 -50 48 0 c52 0 54 -2 32 -31 -21
-28 -20 -29 33 -30 115 -2 243 -18 253 -31 6 -7 19 -13 29 -13 10 0 26 -12 35
-27 17 -26 18 -26 32 -7 8 10 22 18 31 16 12 -2 10 3 -8 19 -14 12 -26 16 -28
10 -2 -6 -9 -11 -15 -11 -5 0 -8 3 -4 6 3 3 -3 22 -14 41 -11 19 -17 38 -15
42 9 14 -52 11 -64 -4 -10 -12 -16 -13 -26 -4 -16 13 -18 45 -4 54 23 14 8 26
-26 19 -22 -4 -45 -2 -59 6 -20 11 -27 11 -40 0 -19 -16 -19 -30 0 -30 8 0 15
-4 15 -10 0 -5 -5 -10 -10 -10 -7 0 -7 -6 0 -20 8 -15 8 -20 -2 -20 -7 0 -23
-3 -35 -6 -21 -6 -22 -4 -17 25 6 27 4 31 -15 31 -13 0 -19 4 -16 10 4 6 11 8
16 5 5 -4 9 0 9 7 0 8 -22 22 -50 33 -27 11 -52 25 -54 32 -6 14 -22 17 -29 6z"/>
<path d="M3705 608 c-3 -8 4 -35 15 -61 16 -36 26 -47 43 -47 13 0 29 -6 35
-12 21 -21 97 -19 110 3 10 16 8 21 -12 34 -13 9 -29 29 -36 45 -12 28 -40 42
-40 20 0 -5 -7 -10 -15 -10 -8 0 -15 7 -15 15 0 9 -9 15 -24 15 -13 0 -31 3
-40 6 -9 3 -18 0 -21 -8z"/>
<path d="M4011 322 c-6 -11 -6 -33 -1 -58 10 -44 6 -52 -30 -57 -16 -3 -26
-11 -28 -25 -2 -16 -10 -22 -28 -22 -18 0 -24 -5 -22 -16 2 -10 -3 -19 -9 -21
-8 -3 -13 4 -13 16 0 12 5 21 10 21 6 0 10 16 10 35 0 28 4 35 19 35 11 0 22
4 26 9 3 6 -16 9 -45 9 -40 -1 -50 -5 -48 -17 2 -11 -6 -17 -24 -19 -34 -4
-35 -15 -7 -34 28 -18 35 -87 10 -104 -9 -7 -12 -16 -8 -20 4 -5 12 -2 16 5 5
7 14 11 20 7 6 -4 28 -2 50 5 36 11 40 16 46 51 8 48 28 58 59 29 22 -21 80
-29 90 -13 3 5 -8 21 -25 36 -21 20 -29 37 -29 61 0 19 -5 37 -11 40 -6 4 -7
19 -4 36 7 33 -9 40 -24 11z"/>
<path d="M1469 208 c-15 -5 -29 -18 -32 -28 -4 -17 -14 -20 -75 -20 -69 0 -71
-1 -77 -28 -3 -16 -1 -41 5 -56 5 -15 7 -38 4 -52 -5 -20 -2 -24 15 -24 12 0
21 5 21 10 0 13 47 13 55 0 3 -5 35 -10 71 -10 50 0 64 3 64 15 0 9 -6 12 -15
9 -9 -4 -18 1 -21 11 -10 26 8 36 39 20 15 -8 49 -15 75 -17 l47 -3 -35 -17
-35 -16 54 -1 c52 -1 53 0 38 17 -23 25 -21 59 4 72 44 24 -31 55 -170 70 -2
0 0 11 3 24 7 30 -1 36 -35 24z"/>
</g>
</svg>
