<?xml version="1.0" standalone="no"?>
<!DOCTYPE svg PUBLIC "-//W3C//DTD SVG 20010904//EN"
 "http://www.w3.org/TR/2001/REC-SVG-20010904/DTD/svg10.dtd">
<svg version="1.0" xmlns="http://www.w3.org/2000/svg"
 width="704.000000pt" height="704.000000pt" viewBox="0 0 704.000000 704.000000"
 preserveAspectRatio="xMidYMid meet">
<metadata>
Created by potrace 1.16, written by Peter Selinger 2001-2019
</metadata>
<g transform="translate(0.000000,704.000000) scale(0.100000,-0.100000)"
fill="#000000" stroke="none">
<path d="M2077 7020 c-3 -11 -12 -20 -21 -20 -9 0 -27 -7 -40 -16 -15 -9 -27
-11 -30 -5 -3 5 11 15 31 21 21 7 42 16 48 21 12 12 2 11 -27 0 -13 -5 -49
-19 -80 -31 -32 -12 -55 -26 -52 -31 3 -5 -1 -6 -9 -4 -7 3 -33 -3 -56 -14
-39 -17 -41 -20 -21 -26 34 -11 19 -15 -22 -6 -20 5 -40 5 -45 2 -4 -4 -38
-20 -76 -35 -62 -26 -101 -52 -60 -41 10 3 5 -1 -12 -10 -16 -8 -40 -12 -52
-10 -12 3 -46 -6 -75 -19 -29 -13 -70 -29 -90 -37 -20 -7 -34 -17 -31 -22 3
-6 1 -7 -5 -3 -7 4 -63 -13 -124 -38 -524 -210 -830 -335 -835 -340 -4 -3 6
-6 20 -6 15 0 27 -4 27 -9 0 -5 10 -13 23 -16 12 -4 47 -18 77 -30 67 -28 265
-105 300 -115 14 -5 104 -36 200 -70 96 -34 281 -98 410 -141 455 -155 496
-169 625 -215 72 -26 153 -53 180 -60 28 -8 56 -22 63 -31 6 -9 12 -11 12 -5
0 7 9 12 20 12 20 0 40 27 40 54 0 9 -7 16 -15 16 -8 0 -15 5 -15 10 0 6 5 10
10 10 15 0 50 -38 50 -55 0 -7 8 -19 18 -24 16 -10 15 -11 -4 -17 -17 -4 -24
-19 -34 -65 -12 -54 -30 -81 -30 -44 0 8 -7 15 -16 15 -11 0 -14 -6 -9 -21 5
-15 1 -25 -15 -36 -19 -13 -21 -22 -16 -54 3 -22 2 -40 -4 -44 -6 -4 -2 -16
10 -32 14 -18 17 -30 10 -37 -5 -5 -10 -24 -10 -40 0 -21 3 -27 9 -18 7 11 9
10 14 -3 4 -9 1 -18 -9 -22 -12 -4 -11 -8 8 -17 13 -7 22 -20 22 -29 -1 -9 1
-17 5 -17 4 0 8 -16 9 -36 2 -20 7 -45 12 -55 15 -26 12 -33 -7 -18 -15 12
-16 12 -11 -8 4 -16 2 -20 -8 -16 -9 3 -14 -1 -14 -12 0 -9 -4 -13 -10 -10 -6
4 -7 -2 -1 -18 5 -13 6 -50 3 -83 -7 -73 -7 -140 1 -179 3 -16 6 -40 6 -53 1
-12 4 -21 9 -20 9 4 11 -13 4 -31 -3 -8 0 -17 7 -19 9 -3 9 -7 0 -18 -7 -8 -7
-14 -1 -14 11 0 8 -102 -4 -121 -4 -7 -3 -9 4 -5 6 3 13 20 17 36 12 54 25 32
25 -41 0 -55 5 -79 21 -105 23 -38 32 -84 19 -104 -6 -10 -11 -4 -18 21 l-9
34 -8 -45 c-5 -25 -8 -51 -6 -59 1 -7 -2 -10 -8 -7 -5 4 -8 23 -5 44 3 27 2
32 -4 17 -13 -29 -25 -123 -14 -106 14 20 24 -2 22 -52 -4 -106 5 -110 40 -17
13 34 26 58 30 53 4 -4 12 -55 19 -112 24 -205 93 -400 169 -478 41 -43 114
-77 223 -104 73 -19 103 -21 244 -17 170 6 218 17 286 71 77 60 88 67 93 58 4
-5 1 -13 -5 -16 -5 -4 -8 -13 -5 -21 3 -8 1 -14 -4 -14 -5 0 -28 -18 -50 -40
-22 -22 -45 -40 -50 -40 -6 0 -9 -3 -9 -7 3 -20 -2 -33 -13 -30 -7 1 -14 -9
-16 -23 -2 -20 -1 -22 8 -10 9 12 10 7 6 -20 -4 -19 -11 -37 -16 -38 -6 -2 -7
-9 -3 -15 4 -7 6 -25 5 -42 -6 -62 43 -132 116 -169 31 -16 43 -48 22 -61 -6
-4 -5 -14 1 -29 8 -17 8 -29 -1 -42 -7 -12 -10 -13 -7 -3 3 8 -1 26 -8 38
l-12 24 -14 -32 c-8 -17 -20 -31 -26 -31 -13 0 -14 -3 -17 -52 -1 -26 -16 -53
-16 -30 0 7 -4 12 -10 12 -5 0 -10 -7 -10 -15 0 -7 -8 -18 -17 -24 -17 -9 -17
-11 2 -25 19 -15 19 -15 -5 -9 -14 4 -30 13 -36 21 -9 12 -14 10 -31 -12 -23
-29 -43 -34 -43 -11 0 23 -23 18 -44 -10 l-19 -26 -15 31 c-9 18 -20 29 -28
26 -7 -3 -14 -1 -16 4 -5 15 -33 15 -34 0 -1 -8 -2 -20 -3 -27 0 -7 -8 -10
-16 -7 -10 4 -18 -2 -24 -17 -4 -13 -12 -23 -17 -22 -19 5 -42 -8 -40 -24 0
-9 -5 -18 -12 -20 -7 -3 -10 1 -6 11 3 9 1 16 -5 16 -6 0 -11 -9 -11 -20 0
-11 5 -20 11 -20 7 0 8 -11 3 -32 -6 -29 -5 -31 10 -19 9 7 16 20 16 27 0 8 5
14 11 14 11 0 3 -38 -12 -55 -15 -16 -10 -40 12 -54 17 -10 19 -15 8 -21 -7
-5 -10 -12 -6 -16 4 -4 14 1 22 12 13 17 14 17 15 2 0 -21 40 -35 50 -17 5 7
3 20 -3 30 -19 30 3 39 46 21 27 -12 37 -23 37 -39 0 -13 5 -23 11 -23 6 0 9
7 5 15 -4 12 3 15 34 15 22 0 40 -4 40 -9 0 -5 15 -14 33 -22 17 -7 43 -21 57
-31 16 -11 50 -21 84 -23 l58 -5 -26 21 c-14 11 -26 26 -26 32 0 19 35 36 51
26 8 -5 44 -9 80 -9 52 0 68 -4 73 -16 5 -12 17 -15 53 -12 46 3 48 2 53 -27
4 -24 7 -26 12 -13 5 11 18 18 33 18 16 0 25 6 25 15 0 29 18 15 24 -20 4 -19
12 -35 18 -35 6 0 8 9 5 21 -5 17 -2 20 14 16 11 -3 25 0 32 6 15 15 87 19 87
5 0 -6 10 -8 24 -4 19 5 26 1 31 -14 7 -23 -2 -43 -16 -34 -5 3 -16 0 -24 -6
-13 -10 -15 -8 -15 16 0 22 -3 26 -10 14 -5 -8 -10 -25 -10 -37 0 -12 -7 -26
-16 -31 -14 -8 -14 -10 -1 -15 20 -7 98 4 92 13 -3 4 4 10 15 13 11 3 20 1 20
-4 0 -5 14 -2 31 7 81 41 134 48 188 21 20 -10 26 -8 45 16 26 33 46 35 46 5
0 -21 1 -21 30 7 17 16 30 36 30 45 0 9 9 26 19 37 11 11 18 29 16 39 -15 75
-16 78 -26 63 -8 -10 -9 -6 -6 16 2 17 2 24 0 18 -5 -15 -23 -17 -23 -3 0 6
-5 10 -11 10 -6 0 -9 -9 -6 -20 3 -11 1 -20 -5 -20 -5 0 -6 -5 -2 -12 4 -7 3
-8 -4 -4 -6 4 -9 13 -5 21 3 8 0 15 -6 15 -6 0 -11 11 -11 25 0 14 -5 25 -11
25 -5 0 -7 5 -4 11 4 6 -1 16 -11 24 -15 10 -16 16 -6 28 10 12 10 16 -3 21
-9 3 -13 2 -10 -3 3 -5 1 -12 -5 -16 -5 -3 -10 -16 -11 -28 l0 -22 -9 22 c-8
18 -38 43 -53 43 -9 0 -1 -58 9 -71 14 -17 24 -79 12 -79 -4 0 -8 11 -8 25 0
14 -4 25 -10 25 -5 0 -10 7 -10 15 0 9 -7 18 -15 21 -10 4 -13 13 -10 25 4 13
1 19 -9 19 -9 0 -16 5 -16 10 0 6 5 10 10 10 15 0 12 16 -5 34 -8 8 -15 23
-15 33 0 29 -12 63 -21 63 -5 0 -9 -8 -9 -17 0 -13 -3 -14 -12 -5 -16 16 -18
54 -2 48 7 -3 16 12 24 40 7 24 19 49 26 55 14 12 20 49 7 49 -4 0 -20 -5 -37
-11 -37 -13 -89 2 -80 24 6 18 -43 67 -68 67 -64 0 -109 -49 -93 -100 5 -15 3
-21 -7 -19 -7 1 -19 1 -25 0 -18 -2 -45 -59 -38 -81 3 -10 2 -21 -3 -24 -13
-8 -13 -69 0 -77 7 -5 7 -12 -1 -25 -7 -13 -10 -14 -11 -5 0 8 -10 2 -25 -15
-21 -24 -31 -28 -70 -26 -60 2 -101 37 -52 44 16 2 23 11 25 33 6 54 3 119 -7
145 -5 14 -12 42 -15 63 -4 32 -2 37 15 37 27 0 24 12 -12 46 -26 25 -38 29
-88 29 -51 0 -62 -4 -96 -33 -31 -28 -43 -33 -69 -28 -29 6 -69 40 -72 61 -1
6 -5 28 -8 50 -7 48 25 123 61 141 13 6 31 18 41 27 10 10 23 17 28 17 13 0
32 54 40 113 4 26 11 47 16 47 6 0 8 6 5 13 -3 7 5 32 17 55 53 105 91 178
101 191 30 40 84 86 122 102 41 18 45 18 78 1 21 -10 35 -25 36 -37 0 -12 3
-15 6 -7 6 15 33 -30 33 -54 0 -8 3 -14 8 -14 7 0 11 -8 56 -116 14 -34 37
-83 51 -109 14 -27 23 -56 19 -67 -3 -10 -2 -23 2 -30 4 -7 9 -26 11 -43 2
-27 50 -142 63 -155 3 -3 11 -16 17 -30 6 -14 12 -19 12 -12 1 16 28 16 34 0
3 -8 6 -6 6 5 1 9 -2 17 -7 17 -4 0 -13 13 -20 30 -8 16 -20 30 -28 30 -8 0
-15 10 -16 23 -1 12 -2 29 -3 38 0 9 -9 28 -18 42 -26 39 -8 33 53 -19 68 -58
106 -77 205 -102 109 -28 190 -34 322 -22 123 11 177 30 251 88 42 33 132 155
132 179 0 6 5 15 12 19 8 5 9 2 5 -10 -4 -10 -3 -15 3 -11 6 3 10 18 10 33 1
24 2 25 11 9 6 -10 8 -25 5 -34 -7 -18 19 -63 35 -63 7 0 9 10 5 24 -3 13 -7
30 -9 38 -2 7 -2 10 0 6 17 -30 103 23 103 64 0 19 -5 20 -48 16 l-48 -5 3 34
c1 18 7 43 14 55 21 42 82 128 91 128 4 0 8 -42 8 -93 0 -87 2 -95 25 -117 45
-42 58 -98 52 -218 -4 -90 -10 -119 -37 -182 l-31 -75 3 -472 c3 -456 4 -473
22 -473 17 0 80 15 116 28 22 7 80 3 119 -10 39 -12 131 -68 113 -68 -22 0
-12 -39 13 -56 21 -14 35 -15 85 -7 52 8 58 8 47 -5 -10 -13 -9 -14 12 -3 16
9 26 10 30 3 4 -7 23 2 49 23 24 19 73 44 109 56 108 36 206 18 280 -50 18
-16 35 -26 39 -22 4 3 4 1 1 -5 -4 -6 2 -36 12 -65 12 -35 20 -49 25 -39 3 9
4 5 2 -8 -2 -12 -1 -20 3 -18 4 3 15 -4 24 -15 9 -10 13 -19 9 -19 -11 0 21
-20 33 -20 6 0 3 5 -5 10 -26 17 -6 11 35 -10 22 -11 45 -20 53 -20 7 0 10 -5
6 -12 -4 -6 -3 -8 3 -5 9 6 103 -75 103 -89 0 -18 114 -163 124 -157 6 3 8 3
4 -2 -11 -12 12 -47 27 -41 9 3 12 0 8 -10 -3 -7 0 -14 6 -14 6 0 11 5 11 11
0 7 10 -1 22 -17 12 -16 23 -31 25 -34 23 -29 23 174 -3 1345 -2 121 -9 472
-14 780 -10 556 -13 670 -31 1235 -5 162 -9 319 -9 348 0 34 -3 51 -10 47 -6
-4 -10 14 -10 50 0 31 -4 54 -9 51 -5 -3 -7 -15 -4 -26 6 -22 -11 -27 -24 -7
-4 6 -18 18 -30 25 -20 10 -23 10 -23 -4 0 -14 -7 -15 -40 -10 -22 3 -40 2
-40 -2 0 -5 -16 -13 -35 -19 -26 -8 -35 -8 -35 0 0 7 -5 5 -10 -3 -5 -8 -10
-11 -10 -6 0 5 -9 1 -19 -8 -12 -11 -21 -14 -26 -7 -9 16 -28 13 -22 -2 3 -8
2 -18 -1 -23 -10 -13 -59 -34 -81 -34 -10 0 -24 -7 -31 -15 -7 -8 -34 -15 -68
-17 -50 -3 -57 -6 -60 -25 -3 -19 -10 -23 -43 -23 -43 0 -56 -26 -16 -33 20
-3 20 -4 3 -12 -11 -5 -21 -3 -26 5 -5 8 -22 11 -47 9 -34 -4 -39 -2 -35 13 4
15 -2 18 -37 18 -30 0 -41 -4 -41 -15 0 -8 -7 -15 -15 -15 -11 0 -15 11 -15
37 0 23 -9 48 -25 69 -14 18 -25 43 -25 56 0 18 -8 27 -34 36 -18 7 -41 10
-49 6 -9 -3 -26 1 -39 10 -31 22 -38 20 -38 -9 0 -14 -4 -25 -9 -25 -17 0 -22
19 -11 40 9 16 8 20 -5 20 -11 0 -15 10 -15 35 0 22 -8 44 -20 57 -17 19 -20
19 -20 5 0 -9 -7 -17 -16 -17 -14 0 -14 -2 0 -22 9 -12 16 -27 16 -33 0 -5 -5
-3 -10 5 -5 8 -10 11 -10 5 0 -5 4 -17 10 -25 6 -9 5 -17 -3 -23 -9 -7 -9 -10
0 -14 7 -2 23 -13 35 -23 19 -15 20 -20 9 -34 -12 -14 -11 -16 8 -16 11 0 21
-4 21 -10 0 -5 -7 -10 -15 -10 -8 0 -15 -9 -15 -20 0 -15 7 -20 25 -20 19 0
25 -5 25 -22 0 -21 0 -21 -14 -2 -8 10 -18 16 -22 11 -4 -4 2 -17 14 -30 12
-13 22 -29 22 -36 0 -8 6 -11 16 -7 9 3 12 2 8 -5 -3 -6 4 -21 17 -35 12 -13
23 -32 24 -42 0 -11 11 -32 23 -47 28 -35 37 -71 24 -88 -8 -9 -7 -20 2 -39
13 -24 12 -27 -8 -36 -18 -8 -14 -11 34 -21 61 -13 90 -34 90 -65 0 -43 -14
-49 -56 -26 -21 12 -43 26 -49 31 -5 5 -23 9 -41 9 -18 0 -34 5 -36 12 -3 7
-21 12 -42 11 -31 -1 -39 3 -47 25 -7 18 -6 27 3 33 8 5 4 11 -14 20 -15 6
-29 18 -32 25 -4 11 -1 11 16 1 16 -9 22 -9 25 0 3 8 15 10 33 6 25 -5 30 -2
36 22 4 16 2 35 -4 44 -16 22 -78 151 -87 179 -3 12 -14 22 -25 22 -15 0 -20
10 -26 47 -7 50 -38 128 -54 138 -6 3 -10 19 -10 34 0 21 -6 30 -22 34 -17 5
-19 9 -9 21 8 10 9 16 1 21 -5 3 -10 19 -10 36 0 16 -4 29 -10 29 -5 0 -9 4
-7 8 1 5 -27 41 -63 81 -36 40 -69 81 -74 92 -5 10 -13 19 -18 19 -4 0 -8 8
-8 18 1 16 1 16 13 0 7 -9 26 -20 42 -24 27 -7 27 -6 -14 35 -22 22 -44 41
-48 41 -5 0 -39 33 -77 73 -108 114 -144 151 -168 170 -25 20 -23 20 44 -11
27 -12 69 -43 94 -68 25 -25 48 -43 51 -40 16 15 -39 73 -159 166 -11 8 -49
39 -84 68 -36 28 -69 52 -72 53 -16 2 -41 7 -61 14 -12 4 -28 2 -36 -5 -14
-11 -112 -11 -130 0 -5 4 -37 8 -70 9 -33 1 -74 4 -91 7 -18 3 -34 2 -37 -3
-5 -8 -2 -9 93 -15 30 -3 89 -14 130 -27 41 -12 93 -28 114 -34 45 -14 60 -37
24 -38 -14 0 -3 -8 32 -20 51 -18 110 -62 99 -73 -2 -3 -24 9 -49 25 -24 16
-55 32 -69 35 -15 3 -37 10 -51 17 -77 34 -128 45 -282 62 -38 5 -52 -8 -23
-19 8 -3 14 -11 13 -18 -2 -7 3 -12 10 -10 6 1 12 -2 12 -7 0 -5 17 -15 38
-22 20 -6 62 -23 92 -37 30 -14 69 -29 85 -33 l30 -7 -27 -1 c-40 -1 -35 -12
21 -46 27 -16 48 -32 46 -34 -3 -2 0 -12 6 -22 13 -24 -3 -24 -25 -1 -28 32
-263 142 -314 148 -20 2 -30 1 -22 -2 12 -5 105 -60 119 -71 2 -2 2 -6 -2 -9
-9 -9 -180 76 -199 100 l-17 21 -16 -22 -15 -22 -65 30 c-35 16 -75 29 -87 29
-13 0 -42 9 -66 20 -23 10 -58 22 -77 26 -19 3 -35 10 -35 15 0 5 -27 9 -59 9
-33 0 -61 5 -63 10 -4 12 -23 13 -83 5 -37 -6 -39 -5 -21 9 11 9 29 17 40 17
12 1 -1 5 -29 10 -31 5 -65 4 -89 -2 -21 -6 -56 -7 -78 -4 -29 5 -39 4 -34 -4
4 -6 11 -9 15 -6 5 2 24 -3 42 -12 27 -14 30 -18 15 -21 -10 -2 -28 1 -40 6
-30 15 -94 25 -138 23 -21 -2 -38 0 -38 2 0 7 130 47 152 47 10 0 18 7 18 15
0 8 -6 13 -12 11 -7 -1 -10 -1 -5 1 4 3 7 11 7 19 0 8 4 14 10 14 5 0 7 -6 4
-13 -3 -8 2 -20 10 -27 18 -14 51 -6 41 10 -12 19 15 38 50 37 21 -1 46 7 62
19 21 15 51 22 112 27 47 4 89 12 95 18 8 9 -2 10 -38 6 -30 -3 -43 -1 -35 4
8 5 22 9 32 9 9 0 17 5 17 10 0 6 -5 10 -12 10 -24 0 -144 -31 -168 -44 -14
-7 -37 -16 -52 -20 -24 -5 -28 -3 -28 14 0 16 6 20 28 18 15 -2 27 1 27 7 0 5
-6 8 -14 7 -7 -2 -10 1 -6 7 3 6 17 11 31 11 14 0 22 4 19 10 -3 6 -22 10 -41
10 -23 0 -34 5 -34 14 0 12 -16 14 -82 10 -46 -2 -105 -7 -133 -10 -46 -5 -49
-5 -30 10 20 15 20 15 -2 13 -13 -1 -23 -4 -23 -8 0 -10 -52 -29 -75 -28 -11
1 -36 -6 -56 -14 -20 -9 -40 -13 -44 -9 -5 4 -5 2 -1 -5 4 -7 14 -10 24 -7 9
3 4 -2 -13 -12 -16 -9 -34 -23 -38 -30 -4 -8 -14 -14 -21 -14 -8 0 -19 -7 -26
-15 -7 -8 -19 -15 -26 -15 -16 0 -45 -22 -85 -64 -28 -29 -49 -29 -44 2 1 9 0
11 -2 5 -3 -7 -11 -13 -19 -13 -12 0 -12 -4 -4 -21 7 -11 9 -28 5 -37 -6 -15
-8 -15 -21 2 -13 18 -14 18 -14 2 0 -9 -12 -29 -27 -43 l-28 -26 59 8 c56 6
59 6 54 -13 -4 -15 -2 -19 8 -15 9 3 14 -2 14 -16 0 -12 -4 -21 -10 -21 -5 0
-10 -7 -10 -15 0 -15 -10 -19 -41 -16 -19 2 -53 -45 -43 -60 4 -6 1 -15 -6
-19 -9 -6 -8 -14 6 -36 17 -26 17 -28 1 -15 -15 12 -17 11 -17 -15 0 -20 -3
-25 -9 -15 -5 7 -6 22 -4 32 7 25 -14 24 -22 -1 -3 -11 -13 -20 -22 -20 -9 0
-13 6 -9 15 3 8 1 15 -4 15 -14 0 -17 -63 -5 -110 5 -20 4 -22 -4 -10 -9 12
-13 13 -20 1 -7 -10 -12 -8 -26 10 l-17 24 7 -25 c4 -14 13 -32 20 -40 6 -8
15 -24 19 -35 6 -17 3 -16 -16 5 -13 14 -30 39 -37 55 -11 23 -15 26 -18 13
-4 -14 -8 -15 -24 -5 -27 17 -24 36 19 103 22 32 47 72 57 89 11 17 20 24 23
17 6 -20 19 -14 41 22 29 46 27 58 -5 45 -15 -5 -29 -7 -32 -4 -3 2 -11 0 -19
-6 -9 -8 -13 -8 -13 -1 0 6 4 13 9 16 11 7 22 46 13 46 -9 0 -62 -101 -62
-118 0 -6 -3 -11 -7 -10 -5 2 -18 -5 -31 -14 -17 -11 -20 -18 -10 -22 7 -3 0
-4 -15 -2 -24 3 -30 -2 -42 -30 -13 -33 -33 -50 -21 -19 3 9 0 15 -8 15 -9 0
-12 -8 -9 -22 7 -31 -24 24 -41 74 -12 34 -12 37 12 48 17 7 22 14 15 21 -8 8
-17 7 -32 -1 -12 -6 -27 -8 -33 -4 -7 5 -9 2 -5 -9 4 -11 2 -14 -9 -10 -15 6
-20 33 -5 33 19 0 42 32 36 51 -7 20 5 25 21 9 5 -5 19 -7 31 -4 27 7 22 31
-23 102 -1 2 -13 -8 -26 -21 -13 -13 -31 -26 -39 -29 -12 -4 -12 -7 0 -21 12
-15 10 -17 -17 -17 -17 0 -34 5 -37 10 -3 6 -3 10 2 10 4 0 16 14 25 30 10 17
32 37 50 45 28 12 31 20 7 17 -4 -1 -15 8 -25 20 -19 20 -19 20 16 13 19 -4
35 -8 36 -9 0 0 11 -14 24 -31 22 -29 23 -29 17 -5 -6 24 -5 24 8 6 8 -11 15
-23 15 -28 0 -17 17 -7 30 17 12 22 14 23 25 8 9 -11 10 -27 4 -47 -11 -37 -5
-45 13 -17 19 31 31 26 24 -10 -5 -29 -4 -31 17 -24 12 4 39 9 60 12 20 3 37
9 37 14 0 4 -7 6 -16 2 -14 -5 -15 -3 -3 18 8 13 14 31 14 39 1 8 7 14 14 12
9 -2 11 3 7 14 -4 12 -2 15 9 10 21 -8 34 23 40 94 4 41 2 60 -6 60 -6 0 -9
-6 -6 -14 3 -8 -1 -17 -8 -20 -8 -3 -18 -23 -21 -46 -4 -22 -15 -50 -25 -62
-21 -23 -39 -18 -19 6 6 9 10 21 7 28 -3 8 -10 2 -17 -14 -7 -16 -17 -28 -22
-28 -12 0 -9 12 7 34 23 30 18 42 -5 13 -11 -14 -20 -33 -21 -44 0 -10 -7 -36
-14 -58 l-14 -40 6 65 c3 36 11 75 19 87 18 29 19 52 2 35 -7 -7 -23 -12 -36
-12 -15 0 -21 -4 -16 -12 4 -6 3 -8 -4 -4 -6 3 -14 1 -17 -5 -4 -5 -14 -8 -22
-5 -9 4 -22 1 -29 -5 -7 -6 -18 -8 -24 -4 -6 4 -10 -5 -11 -22 -1 -24 -2 -23
-10 10 -7 30 -6 43 7 60 l16 22 -7 -22 c-7 -25 4 -30 23 -11 10 10 17 10 32 0
18 -11 20 -10 20 20 1 27 2 30 11 16 14 -25 28 -22 35 6 3 14 13 27 22 30 10
3 1 3 -19 0 -21 -2 -51 -12 -69 -20 -17 -9 -34 -13 -37 -10 -4 3 -1 6 5 6 7 0
12 13 12 28 0 30 31 68 44 55 4 -4 10 -3 14 3 18 26 69 52 94 47 14 -3 29 0
32 6 4 6 17 11 29 11 13 0 33 8 46 17 14 9 21 11 17 5 -5 -9 7 -12 41 -13 l48
-2 -40 -7 c-27 -5 -32 -8 -15 -9 14 -1 35 -4 47 -7 20 -6 21 -8 7 -21 -13 -14
-12 -17 13 -30 15 -8 35 -12 45 -10 10 3 18 1 18 -4 0 -4 -18 -13 -40 -19 -22
-6 -40 -15 -40 -20 0 -5 -7 -10 -17 -12 -14 -3 -14 -5 2 -18 17 -13 18 -13 10
0 -6 12 -5 12 4 4 10 -9 10 -17 2 -33 -7 -12 -8 -21 -2 -21 5 0 15 14 23 30 7
17 19 30 25 30 7 0 13 7 13 15 0 8 7 15 15 15 9 0 16 10 16 28 2 23 2 24 6 5
2 -13 8 -23 13 -23 5 0 11 -8 13 -17 4 -14 5 -13 6 4 0 12 -3 25 -9 28 -5 3
-10 15 -10 26 0 19 -1 20 -29 3 -21 -13 -33 -14 -47 -6 -17 10 -16 12 15 25
19 8 41 13 48 10 7 -3 13 0 13 6 0 6 -8 11 -17 12 -16 0 -16 1 1 8 19 7 19 8
1 15 -14 5 -15 10 -7 18 15 15 78 39 119 45 18 3 31 9 28 13 -2 4 16 2 40 -3
25 -6 48 -8 51 -4 12 12 25 103 29 216 3 62 8 117 11 122 3 5 -298 9 -699 9
-696 0 -705 0 -710 -20z m1580 -616 c8 -21 -13 -63 -34 -70 -10 -4 -32 -12
-50 -20 -17 -8 -35 -14 -40 -14 -4 0 -19 -9 -33 -20 -14 -11 -33 -20 -42 -20
-10 0 -18 -4 -18 -9 0 -15 -45 -21 -81 -11 -22 7 -35 7 -37 0 -2 -5 -11 -10
-20 -10 -24 0 -122 -62 -122 -77 0 -7 -6 -13 -13 -13 -9 0 -14 13 -15 35 -1
19 3 35 9 35 6 0 20 11 30 24 10 13 30 27 44 30 14 4 25 11 25 16 0 6 5 10 11
10 6 0 9 -7 5 -15 -7 -18 10 -20 21 -2 14 21 75 40 153 46 81 6 102 14 94 34
-6 16 22 41 61 55 41 14 45 14 52 -4z m-1071 -279 c-3 -9 3 -19 14 -25 11 -6
20 -16 20 -23 1 -22 47 -107 54 -100 4 4 4 0 0 -10 -12 -31 2 -48 31 -37 17 7
24 7 20 0 -3 -6 -13 -10 -22 -10 -10 0 -13 -6 -9 -16 3 -9 0 -25 -8 -36 -8
-11 -12 -27 -9 -34 3 -8 1 -14 -5 -14 -6 0 -13 -17 -17 -38 -5 -32 -10 -38
-32 -40 -14 -1 -33 -7 -41 -14 -11 -10 -17 -9 -28 7 -8 10 -14 25 -14 33 0 7
-5 10 -11 7 -6 -4 -8 -13 -5 -21 3 -7 1 -16 -4 -19 -6 -4 -10 1 -10 9 0 9 -4
16 -10 16 -5 0 -10 -2 -10 -4 0 -2 -3 -12 -7 -22 -4 -11 -3 -15 4 -11 6 4 13
-2 16 -13 6 -22 -3 -26 -20 -9 -8 8 -10 0 -6 -31 4 -31 3 -41 -5 -36 -7 4 -12
20 -12 36 0 17 -7 33 -17 39 -10 6 -14 11 -9 11 5 0 3 7 -5 16 -7 9 -14 23
-15 32 -1 10 -5 26 -9 37 -5 15 -4 16 3 6 5 -7 15 -10 21 -7 16 10 13 24 -6
29 -14 4 -13 5 4 6 12 0 24 7 27 14 3 6 3 1 1 -13 -5 -23 -5 -23 11 4 12 21
15 43 11 78 -6 52 6 66 18 21 l8 -28 8 30 c5 17 7 35 4 42 -2 7 2 10 10 7 9
-4 15 4 17 23 2 17 8 27 16 25 8 -1 11 2 7 8 -4 6 -2 16 4 23 5 7 6 18 1 26
-5 8 -3 19 3 27 16 18 20 17 13 -1z m832 -425 c8 -13 23 -20 42 -20 20 0 30
-5 30 -15 0 -13 22 -21 33 -12 2 1 11 -4 20 -11 9 -8 26 -12 39 -11 24 3 59
-5 94 -23 14 -6 33 -7 57 0 20 6 39 7 42 2 9 -14 106 -2 124 15 22 19 32 19
25 0 -5 -11 -2 -13 10 -9 9 3 16 13 16 21 0 13 3 13 16 2 11 -9 18 -9 22 -2 9
14 62 5 62 -10 0 -7 4 -7 12 1 7 7 25 12 41 12 20 0 30 6 34 20 3 11 12 20 19
20 10 0 13 -7 9 -23 -4 -15 -1 -28 9 -36 13 -11 16 -11 16 3 0 22 12 20 33 -4
10 -12 29 -20 47 -20 16 0 30 -4 30 -10 0 -5 12 -13 26 -16 17 -4 22 -9 14
-14 -7 -4 9 -13 39 -20 28 -6 48 -16 45 -21 -3 -5 6 -9 20 -9 14 0 25 -5 23
-10 -1 -6 22 -13 54 -15 62 -5 109 -20 121 -38 6 -9 10 -9 17 1 7 12 12 12 32
0 13 -7 26 -16 29 -19 3 -4 34 -21 70 -39 36 -18 67 -36 70 -40 3 -4 15 -12
28 -19 12 -6 22 -21 22 -31 0 -11 5 -20 10 -20 15 0 48 -36 52 -57 2 -10 11
-18 19 -18 23 0 49 -24 49 -46 0 -9 6 -24 13 -31 7 -7 19 -29 27 -48 16 -41
31 -54 43 -37 5 8 6 5 3 -8 -11 -46 -9 -82 7 -105 9 -13 17 -30 17 -37 0 -7 5
-13 12 -13 6 0 4 -7 -5 -18 -10 -10 -17 -22 -17 -25 0 -13 23 -7 41 9 17 16
19 15 29 -12 6 -16 14 -31 18 -34 10 -7 32 -58 32 -73 0 -7 -5 -4 -11 6 -12
21 -29 22 -29 2 0 -8 -5 -15 -11 -15 -8 0 -8 -5 1 -15 8 -9 8 -15 2 -15 -6 0
-17 7 -26 15 -8 8 -22 15 -30 15 -12 0 -16 10 -16 40 0 22 -4 40 -10 40 -5 0
-10 -9 -10 -20 0 -17 -7 -20 -40 -20 -33 0 -40 -3 -40 -20 0 -17 7 -20 40 -20
22 0 40 -4 40 -10 0 -5 7 -10 15 -10 8 0 15 -9 15 -20 0 -11 -7 -20 -15 -20
-8 0 -15 7 -15 15 0 11 -11 15 -40 15 -22 0 -40 5 -40 11 0 6 -9 8 -20 4 -18
-6 -20 -2 -20 44 0 28 -4 51 -10 51 -5 0 -10 -17 -10 -37 -1 -38 -21 -79 -33
-66 -13 12 -7 101 6 106 6 3 2 6 -10 6 -13 1 -23 7 -23 16 0 8 -9 15 -20 15
-11 0 -29 9 -40 20 -11 11 -29 20 -40 20 -27 0 -26 -34 2 -62 16 -16 33 -22
63 -20 l40 1 -3 -54 c-3 -42 -9 -58 -23 -65 -17 -10 -19 -7 -19 20 0 48 -24
31 -28 -18 -2 -33 0 -42 12 -42 17 0 22 -35 7 -44 -5 -4 -47 -8 -93 -10 -45
-2 -117 -11 -158 -19 -41 -9 -101 -15 -133 -13 -31 1 -52 -1 -46 -5 8 -5 8 -9
-1 -14 -8 -5 -18 -1 -27 10 -7 11 -13 13 -13 7 0 -7 -11 -12 -25 -12 -14 0
-33 -8 -43 -17 -10 -10 -29 -19 -42 -21 -13 -1 -31 -9 -39 -16 -9 -7 -22 -11
-29 -9 -7 3 -29 -12 -50 -34 -36 -37 -84 -73 -98 -73 -3 0 -2 6 4 13 8 9 3 13
-19 14 -17 1 -27 -2 -24 -7 4 -6 -1 -10 -9 -10 -8 0 -18 5 -22 11 -4 6 -19 8
-38 5 -17 -3 -42 -7 -56 -9 -14 -2 -35 -7 -47 -11 -17 -6 -23 -3 -23 8 0 9 -7
16 -15 16 -8 0 -15 -7 -15 -15 0 -8 -7 -15 -15 -15 -8 0 -15 7 -15 15 0 8 -12
17 -27 21 -49 10 -53 13 -53 32 0 11 -10 27 -22 36 -15 10 -17 14 -5 10 13 -5
17 -1 17 17 0 19 -2 21 -10 9 -9 -13 -10 -13 -10 0 0 29 -35 100 -47 96 -6 -3
-14 1 -16 9 -3 7 -28 16 -56 20 -28 4 -53 11 -57 16 -3 5 -16 9 -28 9 -13 0
-43 9 -67 19 -60 26 -273 50 -299 33 -12 -7 -28 -9 -42 -3 -50 18 -181 -18
-195 -55 -3 -7 -9 -14 -14 -14 -6 0 -19 -9 -31 -19 -11 -11 -37 -22 -57 -25
-48 -7 -262 -16 -235 -10 20 5 54 78 54 117 0 9 3 17 8 17 4 0 7 52 8 115 0
67 -4 115 -9 115 -6 0 -7 24 -3 63 11 94 14 110 21 132 6 17 5 17 -5 5 -9 -12
-10 -10 -5 10 4 14 11 29 16 35 5 5 9 17 9 27 0 10 7 21 15 24 8 4 15 12 15
20 0 8 5 14 10 14 6 0 14 8 17 18 11 28 65 92 79 92 6 0 15 7 18 16 3 8 10 12
16 9 5 -3 10 -2 10 4 0 5 -6 12 -12 14 -7 3 -1 6 15 6 15 1 27 6 27 12 0 28
47 72 108 101 37 17 69 35 72 39 3 4 18 11 33 14 16 4 31 14 34 21 3 8 11 14
18 14 7 0 39 10 70 22 37 14 52 24 43 29 -23 14 -2 20 28 8 16 -7 59 -13 96
-13 60 -1 67 1 62 17 -7 23 8 22 24 -3z m-558 -1202 c-23 -10 -18 -12 45 -24
88 -16 108 -17 100 -4 -3 6 3 10 14 10 12 0 21 5 21 11 0 7 16 9 48 5 26 -4
67 -8 92 -11 24 -2 53 -8 65 -13 60 -28 81 -32 121 -26 99 15 243 -67 286
-164 37 -83 16 -286 -36 -337 -9 -9 -13 -21 -10 -27 4 -6 3 -8 -3 -5 -5 4 -15
-16 -22 -45 -6 -29 -31 -93 -55 -142 -34 -74 -55 -102 -107 -150 -94 -87 -127
-99 -287 -104 -303 -10 -457 64 -522 249 -85 245 -76 602 18 702 48 51 133 85
217 85 37 1 38 0 15 -10z m1372 -179 c30 -31 30 -31 67 -15 34 15 96 17 118 3
6 -4 24 -5 40 -3 52 6 247 -20 251 -34 3 -9 6 -9 13 1 6 11 11 10 26 -3 10 -8
35 -18 55 -21 39 -6 118 -61 118 -83 0 -10 19 -23 35 -24 12 0 47 -39 42 -47
-3 -4 13 -19 35 -33 21 -13 34 -26 29 -28 -6 -2 -10 -22 -10 -45 2 -30 3 -34
6 -14 2 15 8 27 13 27 5 0 7 -36 3 -82 -8 -114 11 -90 26 33 7 53 16 110 20
125 l8 29 8 -28 c4 -16 3 -56 -2 -90 -6 -34 -8 -69 -4 -77 3 -9 9 4 12 30 l6
45 1 -56 c3 -103 -60 -303 -127 -406 -67 -102 -118 -134 -255 -158 -101 -17
-192 -19 -245 -6 -20 6 -65 17 -100 26 -103 27 -191 92 -251 185 -44 68 -113
307 -126 437 -8 70 10 180 36 233 23 45 83 100 119 109 2 1 17 -13 33 -30z
m-326 -159 c36 -14 51 -36 59 -85 4 -22 9 -48 11 -57 3 -10 1 -18 -5 -18 -6 0
-11 6 -11 13 0 6 -5 30 -11 51 -8 29 -13 36 -20 25 -12 -20 -11 -37 2 -19 8
13 10 12 7 -4 -2 -16 -13 -19 -64 -21 -33 -2 -78 -10 -99 -19 -44 -19 -57 -12
-42 24 5 14 11 30 13 37 5 26 46 72 67 76 41 8 66 7 93 -3z m-262 -1345 c-6
-24 8 -35 20 -16 8 12 48 1 62 -17 6 -8 16 -12 22 -8 7 4 12 1 13 -6 0 -7 4
-3 9 10 10 22 30 31 30 11 0 -6 10 -9 23 -8 12 1 30 -1 40 -6 10 -4 23 -2 31
4 10 8 16 9 21 1 3 -6 11 -7 17 -4 6 4 8 -1 4 -14 -6 -19 -4 -21 36 -17 36 4
49 0 71 -21 15 -13 41 -27 59 -31 18 -3 38 -13 45 -22 8 -11 12 -12 13 -3 0 6
3 11 8 11 4 -1 9 0 12 1 3 1 22 3 43 4 34 2 37 0 37 -26 0 -21 4 -26 15 -21
23 8 87 -58 75 -77 -5 -8 -12 -11 -16 -7 -4 4 -15 0 -24 -8 -18 -17 -64 -5
-115 31 -17 11 -47 28 -67 38 -21 9 -38 22 -38 28 0 6 -3 8 -7 5 -3 -4 -12 -2
-20 5 -8 6 -43 12 -78 12 -36 1 -65 4 -65 9 0 4 5 7 12 7 6 0 8 3 5 7 -10 9
-130 3 -143 -8 -12 -10 -43 -5 -74 11 -12 6 -24 9 -27 6 -3 -3 -14 -1 -24 4
-12 7 -20 7 -24 0 -10 -16 -38 -12 -31 5 3 8 1 15 -4 15 -6 0 -10 -9 -10 -20
0 -11 -5 -20 -11 -20 -5 0 -7 5 -4 10 3 6 -5 10 -19 10 -14 0 -27 -4 -30 -8
-3 -5 -18 -7 -34 -4 -43 6 -137 -16 -165 -39 -14 -10 -40 -19 -58 -19 -43 0
-139 22 -139 32 0 5 5 8 10 8 6 0 22 11 35 25 14 13 25 20 25 15 0 -16 27 -11
34 5 4 12 14 14 41 9 21 -4 35 -2 35 4 0 5 11 9 25 8 14 0 25 -4 25 -8 0 -14
23 -8 36 10 13 16 14 16 7 -2 -6 -18 -5 -18 20 -1 26 17 27 17 27 -1 0 -15 2
-16 9 -5 5 8 20 16 32 18 34 5 99 35 99 46 0 7 39 46 48 47 1 0 0 -11 -4 -25z"/>
<path d="M3050 4264 c-103 -32 -129 -44 -167 -78 -43 -38 -71 -76 -56 -76 4 0
32 22 61 48 30 27 76 57 104 67 52 18 201 33 163 15 -18 -8 -18 -9 6 -9 14 -1
29 3 35 9 6 6 15 6 24 0 10 -7 11 -10 3 -10 -26 0 -12 -28 27 -54 48 -32 50
-38 8 -25 -18 5 -50 9 -71 9 -21 0 -47 5 -58 10 -13 8 -19 7 -19 0 0 -6 -8
-10 -17 -9 -37 6 -120 -14 -178 -41 -33 -16 -76 -32 -95 -36 -56 -11 -67 -39
-20 -55 16 -6 27 -15 24 -20 -7 -12 14 -39 31 -39 8 0 16 8 18 18 3 10 5 5 6
-12 1 -25 4 -27 26 -22 19 5 25 2 25 -10 0 -11 6 -15 20 -11 11 3 23 1 26 -4
9 -15 36 -10 50 9 8 10 13 12 14 5 0 -7 12 -13 26 -13 26 0 26 -1 10 -25 -9
-14 -12 -25 -7 -25 5 0 13 9 16 20 7 23 6 23 104 21 41 -1 80 -6 87 -12 7 -6
28 -7 48 -3 32 5 36 4 36 -14 0 -11 -6 -22 -12 -24 -10 -4 -9 -9 3 -21 11 -11
19 -13 27 -5 7 7 20 7 39 1 24 -9 34 -6 71 20 23 17 42 34 42 38 0 3 9 9 20
12 11 3 23 13 27 24 11 29 30 45 36 30 2 -6 10 8 16 33 23 87 23 86 12 70 -8
-11 -11 1 -12 50 l-2 65 -7 -50 c-6 -44 -7 -46 -8 -14 -2 35 -4 37 -46 43 -30
5 -51 16 -70 36 -14 17 -29 30 -34 31 -4 0 -18 2 -32 4 -14 2 -41 4 -60 6 -19
1 -54 8 -78 15 -40 13 -208 18 -242 8z m15 -197 c0 -49 5 -69 24 -95 23 -34
23 -51 -1 -36 -7 5 -17 9 -23 9 -24 2 -52 20 -82 53 -34 35 -38 48 -26 77 6
16 75 54 98 55 6 0 10 -27 10 -63z"/>
<path d="M4285 4088 c-11 -6 -24 -17 -28 -25 -4 -7 -14 -13 -21 -13 -7 0 -29
-18 -48 -40 -20 -22 -48 -45 -62 -51 -33 -15 -33 -45 -1 -71 14 -11 25 -24 25
-29 0 -6 14 -22 30 -36 17 -13 30 -33 30 -44 0 -10 4 -19 10 -19 5 0 18 -10
30 -22 l20 -22 -1 35 c-1 19 -1 40 0 47 1 14 41 17 41 2 0 -17 25 -11 38 10 7
11 8 20 2 20 -8 0 -36 80 -28 84 2 0 18 9 36 19 19 9 37 17 40 17 4 0 5 -26 3
-57 -3 -56 -2 -58 35 -90 36 -31 38 -35 22 -47 -20 -14 -14 -28 8 -19 9 3 14
-3 15 -18 1 -17 3 -19 6 -7 5 20 44 19 51 0 2 -7 8 -12 14 -12 6 0 8 7 4 15
-7 20 11 19 22 -1 6 -11 14 -14 23 -8 8 5 24 7 36 6 11 -2 24 2 28 7 7 13 89
15 113 2 28 -14 102 -22 102 -11 0 5 -5 10 -11 10 -6 0 -22 9 -36 20 l-25 19
25 7 c14 3 35 3 48 -1 15 -5 19 -4 14 4 -4 7 -1 19 6 27 10 12 9 16 -9 20 -13
4 -19 11 -15 21 12 32 -67 146 -129 186 -56 35 -188 65 -318 70 -82 4 -132 2
-145 -5z"/>
<path d="M5295 6924 c-19 -14 -19 -16 -2 -25 9 -6 15 -15 11 -20 -3 -5 -2 -43
1 -84 7 -69 9 -75 30 -75 13 0 25 8 29 18 6 19 27 54 37 62 4 3 8 14 10 24 6
28 29 32 29 6 0 -20 2 -19 25 8 31 37 31 38 -2 48 -26 7 -25 8 17 14 40 6 41
7 11 8 -28 2 -32 4 -21 17 11 13 2 15 -71 15 -60 -1 -90 -5 -104 -16z"/>
<path d="M6944 6030 c-11 -4 -27 -22 -33 -39 -7 -17 -22 -33 -32 -36 -10 -4
-19 -12 -19 -20 0 -7 -6 -15 -12 -17 -10 -4 -10 -10 -1 -30 6 -13 9 -45 6 -71
-5 -39 -3 -47 11 -47 9 0 16 -5 16 -11 0 -8 17 -10 58 -5 31 4 67 7 80 7 22
-1 22 1 22 128 l0 129 -31 11 c-37 13 -37 13 -65 1z"/>
<path d="M5117 3531 c-3 -14 -1 -18 9 -14 10 4 14 -4 15 -26 1 -17 2 -44 3
-61 0 -16 -5 -37 -11 -47 -12 -16 -13 -16 -13 0 0 9 -4 17 -10 17 -5 0 -10 -9
-10 -20 0 -11 5 -20 10 -20 6 0 10 -6 10 -14 0 -8 5 -16 11 -18 6 -2 11 -22
11 -44 -1 -55 12 -74 28 -43 7 13 18 27 24 31 7 5 5 8 -5 8 -12 0 -18 14 -22
57 -6 54 -2 82 7 52 2 -8 12 -39 21 -69 15 -48 16 -64 6 -115 -6 -33 -13 -70
-15 -81 -2 -12 -8 -30 -14 -40 -9 -18 -15 -46 -28 -129 -3 -22 -10 -41 -15
-43 -5 -2 -9 -12 -9 -23 0 -10 -9 -33 -19 -50 -11 -17 -17 -37 -15 -44 3 -7 1
-16 -5 -20 -6 -3 -11 -17 -11 -31 0 -14 -4 -23 -9 -20 -5 3 -11 -1 -15 -9 -3
-8 -1 -15 5 -15 6 0 9 -6 6 -12 -2 -7 -12 -12 -21 -10 -16 3 -16 1 1 -25 10
-15 13 -24 7 -20 -6 3 -20 -3 -30 -14 -14 -16 -16 -24 -7 -38 7 -11 8 -23 2
-32 -7 -12 -9 -11 -9 2 0 9 -9 19 -20 22 -11 3 -18 2 -15 -3 3 -4 -2 -13 -10
-20 -12 -10 -18 -10 -30 0 -13 11 -15 8 -15 -18 0 -17 -7 -37 -15 -46 -8 -8
-15 -22 -15 -31 0 -12 -6 -15 -20 -10 -15 5 -20 2 -20 -14 0 -11 -9 -22 -19
-26 -12 -4 -18 -12 -14 -21 7 -19 -6 -18 -29 3 -12 11 -18 12 -18 4 0 -9 -5
-8 -15 3 -8 8 -15 22 -15 32 0 10 -3 14 -7 11 -3 -4 0 -25 7 -47 9 -29 18 -39
28 -35 10 4 12 0 8 -11 -4 -9 -1 -22 5 -30 6 -7 9 -21 7 -31 -3 -13 -9 -8 -22
20 -11 21 -22 34 -25 29 -3 -4 -14 -11 -23 -15 -10 -3 -18 -13 -18 -22 0 -8
-7 -15 -15 -15 -8 0 -15 -8 -15 -17 -1 -24 -26 -57 -34 -45 -3 6 -3 18 1 29 6
15 5 16 -9 5 -14 -11 -17 -10 -21 10 -3 13 -3 1 -2 -27 3 -47 -7 -75 -26 -75
-5 0 -9 7 -9 15 0 8 -7 15 -15 15 -8 0 -15 7 -15 15 0 8 -7 15 -15 15 -8 0
-12 -6 -9 -13 2 -7 -2 -29 -11 -49 -8 -20 -12 -45 -8 -54 4 -12 3 -15 -5 -10
-7 4 -12 12 -12 19 0 6 -10 21 -23 32 -12 11 -28 31 -34 45 -12 25 -12 25 -12
2 -1 -12 7 -35 16 -49 17 -26 17 -26 -6 -20 -20 5 -22 3 -16 -16 17 -56 17
-68 0 -81 -15 -11 -16 -16 -5 -35 8 -16 8 -21 1 -17 -12 8 -41 -16 -41 -33 0
-6 -4 -11 -10 -11 -5 0 -7 -6 -4 -14 3 -8 1 -17 -5 -21 -6 -3 -11 0 -11 8 0
18 -32 47 -53 47 -20 0 -21 -9 -2 -33 11 -16 11 -21 -3 -36 -12 -12 -21 -15
-29 -8 -14 10 -7 31 8 22 5 -4 9 -1 9 4 0 6 -9 11 -20 11 -11 0 -20 -4 -20 -9
0 -6 -12 -6 -30 -1 -23 7 -30 5 -30 -6 0 -8 -6 -14 -14 -14 -8 0 -17 -6 -20
-12 -3 -10 -9 -8 -19 4 -15 19 -27 14 -27 -9 0 -8 5 -11 10 -8 13 8 13 -26 -1
-45 -8 -12 -9 -10 -4 9 5 17 4 21 -5 16 -7 -4 -17 -1 -22 6 -7 11 -11 11 -15
1 -2 -6 -9 -9 -15 -6 -7 5 -9 -2 -4 -21 7 -26 6 -26 -10 -11 -9 9 -19 14 -23
10 -3 -4 0 -9 7 -11 6 -3 10 -9 7 -14 -4 -5 -16 0 -27 11 -24 22 -38 26 -38
10 0 -5 5 -10 10 -10 6 0 10 -4 10 -10 0 -23 -20 -8 -30 23 -9 28 -9 26 -5
-20 6 -54 0 -63 -24 -40 -11 10 -14 9 -18 -1 -4 -10 -10 -9 -25 5 -11 9 -19
13 -18 8 6 -28 -1 -46 -17 -44 -46 4 -55 -1 -51 -26 3 -13 1 -22 -3 -19 -5 3
-9 16 -9 29 0 18 -4 23 -15 19 -8 -4 -15 -1 -15 5 0 6 -4 11 -10 11 -5 0 -10
-13 -10 -29 0 -42 -19 -49 -42 -18 -11 15 -26 27 -34 27 -9 0 -15 12 -15 33
-2 30 -2 30 -6 5 -6 -38 -23 -35 -23 3 0 19 -4 28 -11 24 -6 -4 -13 3 -16 15
-3 13 -11 19 -19 16 -8 -3 -14 0 -14 7 0 7 -5 4 -11 -6 -13 -22 -29 -13 -24
13 3 13 -1 17 -11 13 -9 -3 -14 2 -14 16 0 28 -14 27 -28 -1 -11 -21 -11 -21
-6 7 l6 30 -22 -30 c-23 -31 -23 -27 -4 35 4 12 2 20 -5 20 -6 0 -11 -6 -11
-14 0 -7 -7 -27 -15 -42 l-15 -29 0 28 c0 32 -10 34 -35 7 -10 -11 -24 -20
-32 -20 -11 0 -10 5 3 25 9 14 23 25 30 25 8 0 14 4 14 9 0 12 -43 1 -52 -13
-5 -6 -8 -2 -8 11 0 12 8 23 18 26 9 3 3 5 -15 6 -18 1 -35 -5 -40 -13 -6 -10
-17 -13 -38 -8 -36 8 -45 32 -13 32 21 1 21 2 5 11 -9 6 -26 7 -37 4 -11 -4
-20 -2 -20 4 0 6 14 11 30 11 17 0 30 5 30 11 0 5 -5 7 -11 3 -6 -3 -15 0 -20
7 -7 12 -13 12 -36 -1 -16 -9 -36 -14 -46 -12 -18 4 -18 4 0 18 10 7 13 14 6
14 -7 0 -10 7 -7 15 4 11 -1 15 -17 15 -19 0 -21 2 -9 10 12 7 8 12 -18 23
-18 7 -29 16 -26 20 4 3 -1 14 -11 23 -9 9 -14 25 -12 35 3 12 -2 21 -16 25
-21 7 -21 7 3 16 20 7 22 11 10 18 -13 8 -12 10 3 10 10 0 15 5 12 10 -3 6 1
10 9 10 9 0 16 7 16 15 0 8 -4 15 -10 15 -5 0 -10 5 -10 10 0 6 8 10 17 10 13
0 14 3 5 12 -9 9 -18 6 -40 -15 -28 -27 -52 -35 -52 -18 0 5 -9 13 -20 16 -13
4 -20 15 -20 31 0 14 -4 22 -10 19 -5 -3 -10 0 -10 7 -1 7 -9 3 -20 -10 -18
-22 -21 -23 -42 -8 -18 13 -19 16 -6 16 9 0 20 5 24 12 5 8 0 9 -14 6 -22 -6
-30 6 -12 17 15 9 12 25 -5 25 -9 0 -12 6 -9 15 5 12 -2 15 -27 15 -29 0 -36
-5 -48 -32 -8 -18 -16 -27 -19 -19 -2 7 1 18 7 24 13 13 15 47 3 47 -14 0 -35
54 -23 58 16 5 13 22 -4 22 -8 0 -14 3 -14 8 3 18 -2 32 -12 32 -6 0 -9 -9 -6
-20 7 -26 0 -25 -22 2 -22 26 -46 17 -31 -12 16 -30 12 -65 -10 -85 -19 -18
-22 -18 -37 -2 -11 11 -13 17 -5 17 7 0 12 12 12 26 0 16 -4 23 -12 18 -6 -4
-17 1 -24 10 -8 12 -14 14 -19 5 -4 -6 -3 -14 3 -18 6 -3 13 -24 17 -46 10
-52 14 -58 31 -44 25 20 15 -3 -12 -28 -26 -24 -26 -24 -31 -2 -8 30 -20 5
-15 -32 4 -27 5 -28 17 -12 13 17 14 16 23 -7 5 -14 8 -28 5 -32 -7 -12 -33
-9 -33 4 0 6 -3 8 -6 5 -4 -4 -2 -12 3 -19 6 -7 13 -26 15 -41 4 -22 2 -27 -9
-23 -8 3 -18 6 -23 6 -4 0 -6 9 -3 19 4 15 -2 20 -34 25 -29 5 -55 0 -108 -20
-39 -15 -99 -30 -135 -33 l-65 -7 58 -27 c73 -34 94 -34 164 3 89 47 113 40
113 -36 0 -31 -2 -34 -24 -28 -13 3 -40 -2 -61 -10 -50 -21 -94 -20 -155 4
-143 56 -258 -15 -284 -175 -5 -30 -15 -46 -40 -63 -38 -26 -157 -53 -197 -45
-41 8 -111 -30 -155 -84 l-38 -46 -37 44 c-35 42 -39 43 -95 44 -106 0 -144
-50 -119 -160 17 -71 8 -110 -27 -121 -21 -6 -48 11 -48 32 0 21 -34 17 -55
-7 -12 -12 -19 -34 -19 -57 1 -73 13 -161 23 -181 9 -17 7 -33 -13 -83 -14
-35 -37 -108 -51 -163 -15 -55 -29 -103 -32 -107 -2 -5 1 -8 8 -8 11 0 11 -7
-10 -120 -6 -30 -18 -104 -27 -165 -9 -60 -19 -128 -23 -150 -4 -22 -2 -52 3
-67 7 -19 5 -64 -8 -155 -9 -70 -20 -167 -23 -215 l-6 -88 3037 0 3036 0 0 76
c0 69 -2 78 -25 95 -14 12 -27 35 -30 57 -4 20 -13 69 -20 107 -8 39 -19 121
-24 183 -12 134 -20 154 -59 146 -26 -5 -28 -2 -40 41 -7 25 -16 44 -21 41 -9
-6 -51 30 -51 44 0 6 6 10 13 10 8 0 9 3 1 8 -20 13 -37 129 -31 207 7 90 -3
128 -44 178 -29 35 -34 37 -82 37 -98 -2 -123 7 -112 40 4 12 -15 40 -59 88
-79 87 -86 100 -96 177 -10 79 -34 129 -78 163 -29 22 -45 26 -101 27 l-66 0
-3 36 -3 36 48 6 c26 4 71 9 98 13 53 7 75 18 75 39 0 10 -10 10 -45 3 -42 -9
-48 -8 -85 22 -22 17 -40 38 -40 46 0 8 -4 14 -9 14 -5 0 -18 17 -28 38 -25
51 -78 69 -158 52 -64 -13 -112 -53 -169 -143 -59 -91 -79 -108 -123 -101 -39
5 -61 15 -168 73 -53 29 -66 32 -109 26 -68 -9 -96 -27 -151 -100 -63 -83
-106 -107 -187 -103 l-63 3 -10 75 c-6 41 -16 85 -23 97 -16 28 -91 73 -123
73 -49 0 -56 14 -30 62 38 69 36 68 92 50 42 -14 52 -14 59 -3 7 12 14 12 42
-2 49 -23 127 -31 178 -18 51 13 90 31 90 41 0 4 -53 9 -117 12 -66 2 -128 10
-140 16 -15 8 -23 9 -23 2 0 -17 -22 -11 -44 13 -12 12 -30 27 -41 32 -17 10
-17 12 0 45 10 19 26 46 36 59 10 12 21 39 24 60 8 44 25 91 34 91 4 0 8 15 9
33 3 47 23 126 33 133 5 3 9 12 9 21 0 24 63 217 72 224 5 3 6 13 2 22 -3 10
-1 17 5 17 6 0 11 11 11 24 0 29 19 85 38 111 13 19 14 18 7 -10 -4 -16 -3
-27 1 -23 4 5 8 50 9 102 1 71 5 98 18 110 8 9 21 41 27 71 6 30 16 55 21 55
28 0 68 94 54 127 -6 15 -10 12 -21 -17 -8 -19 -20 -48 -28 -65 l-13 -29 -26
28 c-21 22 -27 39 -27 72 0 24 -4 44 -9 44 -7 0 -21 47 -20 66 0 5 -41 44 -46
44 -2 0 -5 -9 -8 -19z m-2652 -1461 c8 -7 15 -28 15 -49 l0 -36 -113 0 c-95
-1 -118 -4 -154 -23 -43 -23 -83 -65 -83 -89 0 -40 -44 -112 -88 -146 -60 -46
-91 -57 -153 -57 -37 0 -49 -3 -45 -12 2 -7 10 -30 17 -51 15 -47 46 -61 109
-52 103 16 182 84 219 188 27 77 60 110 137 133 61 18 138 18 153 0 7 -8 16
-37 20 -65 8 -49 7 -51 -13 -44 -36 13 -89 6 -147 -20 -69 -31 -95 -63 -104
-126 -12 -88 -114 -176 -217 -188 -76 -9 -92 -1 -121 66 -33 76 -55 91 -132
91 -61 0 -113 -19 -128 -46 -14 -24 -24 -16 -46 37 -24 60 -22 66 48 111 34
21 57 28 94 28 l48 0 -7 45 c-3 25 -4 45 0 45 3 0 24 -7 46 -16 59 -24 120 -5
177 55 24 24 43 48 43 52 0 20 51 117 70 134 49 44 97 55 222 52 75 -3 123 -9
133 -17z m199 -165 c3 -8 11 -12 19 -10 7 3 26 -8 42 -25 16 -16 25 -30 20
-30 -4 0 4 -11 19 -25 14 -13 26 -31 26 -40 0 -8 4 -15 10 -15 5 0 17 -14 26
-32 9 -18 23 -38 30 -46 8 -7 14 -18 14 -23 0 -6 6 -7 13 -3 10 6 10 4 0 -7
-19 -20 -16 -27 11 -22 19 4 25 -1 34 -26 6 -17 15 -31 20 -31 5 0 15 -11 22
-25 7 -14 20 -25 28 -25 18 0 41 -29 42 -51 0 -10 11 -36 24 -60 14 -24 23
-46 20 -50 -2 -4 3 -23 11 -43 17 -40 40 -47 50 -16 12 37 25 21 25 -30 0 -51
-12 -64 -38 -38 -9 9 -12 8 -12 -8 0 -11 -5 -25 -12 -32 -14 -14 -68 -16 -68
-2 0 6 14 10 30 10 l30 0 -19 39 c-19 36 -47 58 -59 46 -3 -3 0 -5 6 -5 7 0
12 -12 12 -27 l-1 -28 -24 28 c-13 15 -31 27 -40 27 -17 0 -21 16 -5 22 7 2 6
13 -2 30 -10 22 -20 28 -46 28 -22 0 -35 6 -40 18 -9 22 -62 102 -81 122 -9 9
-10 15 -3 18 7 2 1 15 -13 30 -14 15 -25 34 -25 44 0 26 -11 48 -25 48 -15 0
-28 27 -19 41 3 5 1 9 -4 9 -5 0 -17 28 -26 63 -10 34 -24 82 -32 107 -8 25
-14 48 -14 53 0 13 18 7 24 -8z m571 -693 c6 -21 16 -32 27 -32 21 0 26 -46 6
-52 -7 -3 -9 -11 -3 -24 7 -16 9 -17 12 -2 4 17 32 33 41 23 3 -3 0 -5 -6 -5
-7 0 -12 -9 -12 -20 0 -13 7 -20 20 -20 13 0 20 -7 20 -20 0 -11 5 -20 10 -20
6 0 10 -6 10 -13 0 -7 15 -18 33 -25 43 -15 47 -15 47 3 0 9 6 12 15 9 8 -4
15 -12 15 -19 0 -7 -7 -15 -15 -19 -10 -4 -15 -20 -15 -51 0 -25 -4 -45 -10
-45 -5 0 -10 -19 -10 -41 l0 -42 -46 7 c-26 3 -57 6 -70 6 -17 0 -24 6 -24 20
0 13 -7 20 -19 20 -10 0 -21 7 -25 15 -3 9 0 15 10 15 12 0 11 7 -6 40 -11 22
-25 40 -30 40 -6 0 -10 8 -10 18 0 9 -9 23 -20 30 -15 9 -20 23 -20 58 0 31
-6 51 -20 66 -11 12 -20 32 -20 45 0 20 5 23 40 23 36 0 40 2 40 26 0 35 22
26 35 -14z m181 -422 c21 0 24 -5 24 -35 0 -24 5 -35 15 -35 8 0 28 -13 43
-30 22 -23 38 -30 66 -30 20 0 36 -4 36 -10 0 -5 18 -10 40 -10 29 0 40 4 40
15 0 8 9 15 20 15 11 0 20 -4 20 -9 0 -5 18 -12 40 -16 22 -4 43 -12 46 -17 4
-7 2 -8 -4 -4 -19 12 -14 1 10 -20 12 -10 18 -13 14 -6 -4 6 -2 12 3 12 7 0
11 -26 11 -66 0 -53 -6 -79 -31 -130 -16 -35 -34 -64 -40 -64 -5 0 -9 -6 -9
-13 0 -14 -66 -37 -106 -37 -17 0 -28 6 -31 19 -3 11 -12 20 -21 20 -35 1 -82
14 -82 22 0 5 -10 9 -21 9 -13 0 -45 24 -80 60 -54 54 -59 63 -59 104 0 26 -6
48 -15 56 -8 7 -20 30 -25 52 -6 21 -18 42 -26 45 -16 6 -19 33 -4 33 6 0 10
19 10 41 l0 42 46 -7 c26 -3 57 -6 70 -6z"/>
<path d="M5007 2363 c-5 -7 -10 -106 -8 -140 2 -21 58 -43 108 -43 61 1 148
30 148 50 0 11 -13 16 -45 18 -40 3 -47 7 -59 33 -20 46 -128 108 -144 82z"/>
<path d="M3425 2337 c-8 -20 44 -96 63 -90 8 3 10 -1 5 -13 -5 -14 -2 -16 15
-12 15 4 27 0 36 -14 8 -11 19 -17 25 -13 6 3 18 -1 27 -10 9 -9 23 -14 32
-10 8 3 21 0 28 -6 11 -9 14 -7 14 7 0 12 3 15 8 8 11 -18 72 -28 72 -12 0 10
3 9 10 -2 8 -12 10 -12 10 -1 0 11 5 9 22 -5 12 -10 18 -13 14 -6 -9 15 10 17
19 2 5 -8 11 -8 20 0 10 8 14 8 17 -1 2 -7 10 -9 16 -5 7 4 10 16 7 27 -4 11
-2 19 4 19 6 0 11 -9 11 -19 0 -11 4 -23 10 -26 5 -3 7 0 4 8 -4 11 1 13 19
10 17 -3 28 2 40 21 12 17 22 23 34 19 12 -5 15 -2 10 10 -4 11 1 18 14 22 48
16 8 48 -61 50 -19 1 -66 7 -105 14 -38 7 -126 14 -195 16 -122 3 -181 8 -200
20 -5 3 -12 0 -16 -6 -4 -8 -9 -7 -15 2 -6 11 -9 10 -14 -4z"/>
<path d="M1894 2236 c-17 -7 -47 -28 -66 -45 l-36 -31 -78 11 c-81 11 -214 4
-214 -12 0 -5 12 -9 26 -9 14 0 55 -19 90 -42 60 -40 77 -58 54 -58 -5 0 -10
-6 -10 -14 0 -11 -8 -10 -37 5 -71 36 -107 20 -151 -67 -11 -22 -28 -46 -36
-53 -9 -8 -16 -19 -16 -25 0 -13 41 -56 52 -56 4 0 23 23 44 51 49 66 106 95
162 80 54 -16 102 -13 148 8 43 20 58 45 68 115 6 47 34 78 92 106 48 22 57
40 20 40 -13 0 -36 2 -52 5 -16 3 -43 -1 -60 -9z"/>
<path d="M1300 2129 c-19 -5 -65 -6 -102 -3 -47 4 -68 3 -68 -5 0 -6 8 -11 18
-11 22 0 107 -57 148 -99 l31 -32 30 25 c28 24 71 111 60 122 -11 11 -83 13
-117 3z"/>
<path d="M947 2092 c-10 -11 -21 -52 -28 -98 -6 -43 -15 -83 -20 -88 -17 -18
-9 -32 32 -55 26 -15 44 -20 50 -14 6 6 17 50 25 98 9 49 22 98 30 111 14 20
13 23 -12 43 -33 26 -56 27 -77 3z"/>
<path d="M1164 2002 c-33 -23 -44 -58 -44 -139 0 -77 -2 -84 -30 -116 -33 -38
-37 -49 -16 -41 8 3 34 -9 57 -26 41 -29 44 -30 56 -13 10 13 12 40 7 103 l-6
85 36 40 c44 49 45 69 6 85 -16 7 -30 16 -30 21 0 11 -21 12 -36 1z"/>
<path d="M5210 1903 c-27 -12 -57 -14 -128 -10 l-93 5 3 -41 c3 -36 7 -42 33
-49 73 -20 162 13 213 80 27 35 23 38 -28 15z"/>
<path d="M666 1858 c-2 -13 -9 -59 -14 -103 -8 -72 -7 -84 11 -117 15 -27 27
-38 43 -38 28 0 39 35 49 159 6 79 6 84 -17 99 -37 27 -67 26 -72 0z"/>
<path d="M909 1768 c-7 -12 -16 -68 -20 -123 -10 -134 -14 -145 -53 -145 -30
-1 -30 -1 -11 -17 20 -15 20 -15 -2 -10 -28 6 -39 -23 -48 -118 -17 -207 -17
-204 -36 -210 -11 -4 -19 -10 -19 -15 0 -4 -7 -11 -16 -14 -14 -5 -15 -4 -4 9
8 10 9 15 1 15 -6 0 -19 -12 -28 -27 -14 -22 -19 -57 -24 -177 -6 -150 -21
-228 -54 -266 -24 -28 -27 -83 -15 -205 14 -131 16 -119 -35 -254 -9 -25 -19
-82 -22 -128 l-6 -83 132 0 c131 0 131 0 126 23 -10 42 -9 152 3 272 6 66 12
178 12 249 0 118 2 134 26 183 37 79 57 185 50 261 -7 71 6 135 32 154 27 19
30 27 52 134 12 55 25 108 30 119 5 11 10 68 12 126 2 76 8 112 20 130 15 24
14 28 -11 79 -21 44 -31 56 -53 58 -19 2 -30 -3 -39 -20z"/>
<path d="M6448 1774 c-16 -8 -28 -17 -28 -19 0 -2 8 -26 19 -52 10 -26 22 -66
26 -88 4 -22 11 -48 17 -58 8 -16 12 -17 23 -6 32 35 35 76 12 156 -12 42 -26
78 -32 79 -5 2 -22 -4 -37 -12z"/>
<path d="M514 1583 c-7 -5 -15 -52 -19 -105 -6 -85 -5 -99 9 -104 9 -3 16 -12
16 -19 0 -8 12 -22 28 -33 l27 -20 19 26 c27 35 31 203 7 233 -18 21 -70 34
-87 22z"/>
<path d="M6903 1289 c-29 -10 -35 -35 -24 -95 5 -27 7 -86 4 -131 -6 -90 1
-102 36 -57 19 24 21 40 21 155 0 70 -3 130 -7 132 -5 3 -18 1 -30 -4z"/>
<path d="M332 1218 c-6 -13 -13 -79 -16 -148 -6 -190 -15 -227 -67 -279 -44
-44 -44 -35 -13 -205 20 -114 20 -116 -20 -116 -34 0 -35 -1 -47 -56 -10 -43
-10 -74 -1 -143 7 -49 12 -129 12 -180 l0 -91 75 0 76 0 -7 102 c-7 124 6 215
38 258 26 36 27 64 13 303 -6 96 -5 137 3 137 6 0 27 15 46 34 l36 33 0 139
c0 77 -5 156 -11 177 -10 37 -21 43 -73 37 -10 -1 -22 3 -26 9 -4 7 -11 3 -18
-11z"/>
<path d="M12 724 c-13 -15 -16 -191 -3 -198 3 -1 26 1 50 6 l43 10 -7 56 c-4
31 -13 72 -21 90 -7 18 -13 35 -13 38 0 3 -2 8 -5 12 -3 3 -6 0 -6 -8 0 -9 -4
-9 -12 -2 -9 7 -17 6 -26 -4z"/>
</g>
</svg>
